<svg  xmlns="http://www.w3.org/2000/svg" width=" 70.8661" height=" 70.8661" viewBox="-2.5927 -2.5927 70.8661 70.8661"><path d="M32.42,19.155999L26.571999,35.459 38.374998,35.459z M32.469999,15.591C33.217997,15.591 33.835997,15.726 34.309,15.992999 34.796,16.268999 35.192999,16.626999 35.488997,17.056 35.823,17.540999 36.108999,18.068999 36.337,18.623999 36.587,19.233001 45.587,41.551004 45.587,41.551004 46.344,43.365004 46.501997,44.233004 46.501997,44.644003 46.501997,45.159002 46.279997,45.632002 45.820997,46.091002 45.362997,46.549002 44.825998,46.772001 44.178999,46.772001 43.802999,46.772001 43.488997,46.710001 43.245996,46.588003 42.988997,46.459002 42.780996,46.291002 42.610998,46.076002 42.470999,45.900003 42.240999,45.541002 41.927999,44.826002 41.65,44.190004 41.410997,43.629004 41.209997,43.142004L39.501997,38.655005 25.475998,38.655005 23.761999,43.255003C23.061998,45.133001 22.613998,45.928003 22.360998,46.263002 22.265999,46.389002 21.977999,46.772001 20.955997,46.772001 20.359999,46.772001 19.841999,46.555002 19.373999,46.110003 18.917997,45.675001 18.696999,45.210001 18.696999,44.687002 18.696999,44.337004 18.756998,43.967001 18.875998,43.589003 19.015999,43.142004 19.246998,42.519003 19.567999,41.724005L28.520998,18.977999C28.822998,18.207999 29.144999,17.564999 29.477999,17.068999 29.775999,16.623999 30.160997,16.272 30.651999,15.992999 31.123999,15.726 31.735998,15.591 32.469999,15.591z M32.599002,0C50.574003,0 65.197004,14.623996 65.197004,32.598993 65.197004,40.539991 62.393003,48.002991 57.253004,53.919987L57.260004,53.926987 60.429003,57.095985C61.068003,57.734985,61.026003,58.487988,60.335005,58.770985L44.806004,65.096985C44.114002,65.378986,43.779003,65.043983,44.061003,64.351986L50.387003,48.82399C50.669003,48.131989,51.423002,48.088989,52.062002,48.728989L55.246004,51.912987C59.854002,46.53599 62.363005,39.779991 62.363005,32.598993 62.363005,16.186996 49.010002,2.8349991 32.599002,2.8349991 16.187001,2.8349991 2.835001,16.186996 2.835001,32.598993 2.835001,43.102989 8.467001,52.940987 17.532001,58.272987 18.207002,58.669987 18.432002,59.538986 18.035001,60.213985 17.771002,60.661987 17.298002,60.911987 16.812001,60.911987 16.568002,60.911987 16.321002,60.848988 16.095001,60.716988 6.1680012,54.876987 0,44.102989 0,32.598993 0,14.623996 14.624002,0 32.599002,0z"/></svg>
