<svg  xmlns="http://www.w3.org/2000/svg" width=" 70.8661" height=" 70.8661" viewBox="-0 -22.4697 70.8661 70.8661"><path d="M58.1099982261658,6.37700030532068C61.6270003318787,6.3769998550415 64.4880003929138,9.23899984359741 64.4880003929138,12.7549996376038 64.4880003929138,16.2729997634888 61.6270003318787,19.132999420166 58.1099982261658,19.132999420166 54.5929999351501,19.132999420166 51.731999874115,16.2729997634888 51.731999874115,12.7549996376038 51.731999874115,9.23899984359741 54.5929999351501,6.3769998550415 58.1099982261658,6.37700030532068z M12.7560000419617,6.37700030532068C16.2730002403259,6.3769998550415 19.1339993476868,9.23799991607666 19.1339993476868,12.7549996376038 19.1339993476868,16.2720003128052 16.2730002403259,19.132999420166 12.7560000419617,19.132999420166 9.23899984359741,19.132999420166 6.37799978256226,16.2720003128052 6.37799946703214,12.7549996376038 6.37799978256226,9.23799991607666 9.23899984359741,6.3769998550415 12.7560000419617,6.37700030532068z M12.5769996643066,2.83400011062622C7.18299978971481,2.83399987220764 2.79499983787537,7.28399986028671 2.79500007629395,12.7549996376038 2.79499983787537,18.2259998321533 7.18299978971481,22.6769990921021 12.5769996643066,22.6769990921021L58.2899985313416,22.6769990921021C63.6839995384216,22.6769990921021 68.0720000267029,18.2259998321533 68.0720000267029,12.7549996376038 68.0720000267029,7.28399986028671 63.6839995384216,2.83399987220764 58.2899985313416,2.83400011062622z M12.5769996643066,0L58.2899985313416,0C65.2249999046326,0 70.8669981956482,5.72199988365173 70.8669981956482,12.7549996376038 70.8669981956482,19.7889995574951 65.2249999046326,25.5110006332397 58.2899985313416,25.5110006332397L12.5769996643066,25.5110006332397C5.64199978113174,25.5110006332397 0,19.7889995574951 0,12.7549996376038 0,5.72199988365173 5.64199978113174,0 12.5769996643066,0z"/></svg>
