<svg  xmlns="http://www.w3.org/2000/svg" width=" 70.8661" height=" 70.8661" viewBox="-2.5927 -2.5927 70.8661 70.8661"><path transform="scale(-1,1) translate(-65.6808,0)" d="M32.5989988807423,28.3470001220703C34.9469984534962,28.3470001220703 36.8510015968068,30.2509994506836 36.8510015968068,32.5989990234375 36.8510015968068,34.9469985961914 34.9469984534962,36.851001739502 32.5989988807423,36.851001739502 30.2509993079884,36.851001739502 28.3469999793751,34.9469985961914 28.3469999793751,32.5989990234375 28.3469999793751,30.2509994506836 30.2509993079884,28.3470001220703 32.5989988807423,28.3470001220703z M32.5989988807423,0C50.5740011695607,0 65.1969984534962,14.6239995956421 65.1969984534962,32.5989990234375 65.1969984534962,40.5400009155273 62.3930014137013,48.0029983520508 57.2529982093556,53.9199981689453L57.259998178838,53.9269981384277 60.429000711797,57.0960006713867C61.0680006507619,57.7350006103516,61.0260008338673,58.4889984130859,60.3349989417775,58.7709999084473L44.8050001624806,65.0970001220703C44.1139982703908,65.3789978027344,43.7799986366017,65.0439987182617,44.0610006812794,64.3519973754883L50.3870008949025,48.8240013122559C50.6689985755665,48.1319999694824,51.4230001929982,48.0900001525879,52.062000131963,48.7290000915527L55.2459982398732,51.9129981994629C59.8539999488576,46.5359992980957 62.3629988197072,39.7809982299805 62.3629988197072,32.5989990234375 62.3629988197072,16.1870002746582 49.009998178838,2.83500003814697 32.5989988807423,2.83499979972839 16.187000131963,2.83500003814697 2.8349998954518,16.1870002746582 2.8349998954518,32.5989990234375 2.8349998954518,43.1030006408691 8.46699986493422,52.9410018920898 17.5319994453175,58.2729988098145 18.2070005897267,58.6699981689453 18.4319990638478,59.5390014648438 18.0349997047169,60.2140007019043 17.7709997657521,60.6619987487793 17.2980001929982,60.9119987487793 16.812000131963,60.9119987487793 16.5680006507619,60.9119987487793 16.3209990028126,60.8489990234375 16.0949991706593,60.7169990539551 6.16800007855727,54.8769989013672 -1.42695171234664E-07,44.1030006408691 0,32.5989990234375 -1.42695171234664E-07,14.6239995956421 14.6239994529469,0 32.5989988807423,0z"/></svg>
