<svg  xmlns="http://www.w3.org/2000/svg" width=" 70.8661" height=" 70.8661" viewBox="-0 -6.0495 70.8661 70.8661"><path d="M29.7639985084534,25.511998735569C32.1119990348816,25.511999130249 34.015998840332,27.415999174118 34.015998840332,29.7639989852905 34.015998840332,32.1119990348816 32.1119990348816,34.015998840332 29.7639985084534,34.015998840332 27.415999174118,34.015998840332 25.511999130249,32.1119990348816 25.511999386358,29.7639989852905 25.511999130249,27.415999174118 27.415999174118,25.511999130249 29.7639985084534,25.511998735569z M29.7639985084534,0C46.1759986877441,0 59.5279979705811,13.3519992828369 59.5279979705811,29.7639989852905 59.5279979705811,38.7939987182617 55.4969997406006,47.2339992523193 48.4679985046387,52.9189987182617 47.8589992523193,53.4099998474121 46.9669990539551,53.3169994354248 46.4739990234375,52.7079982757568 45.9819984436035,52.0989990234375 46.0759983062744,51.2069988250732 46.6849994659424,50.7149982452393 53.0459995269775,45.5699996948242 56.6929988861084,37.9339990615845 56.6929988861084,29.7639989852905 56.6929988861084,14.9149990081787 44.6129989624023,2.83499908447266 29.7639985084534,2.83499908447266 14.9149990081787,2.83499908447266 2.83499908447266,14.9149990081787 2.83499908447266,29.7639989852905 2.83499908447266,44.6129989624023 14.9149990081787,56.6929988861084 29.7639985084534,56.6929988861084L69.4489994049072,56.6929988861084C70.2320003509521,56.6929988861084 70.8659992218018,57.3279991149902 70.8659992218018,58.1109981536865 70.8659992218018,58.8929996490479 70.2320003509521,59.5279979705811 69.4489994049072,59.5279979705811L29.7639985084534,59.5279979705811C13.3519992828369,59.5279979705811 0,46.1759986877441 0,29.7639989852905 0,13.3519992828369 13.3519992828369,0 29.7639985084534,0z"/></svg>
