<svg  xmlns="http://www.w3.org/2000/svg" width=" 70.8661" height=" 70.8661" viewBox="-16.4202 -5.1853 70.8661 70.8661"><path d="M31.8899993896484,53.8580017089844C33.4549999237061,53.8580017089844 34.7250003814697,55.1269989013672 34.7250003814697,56.693000793457 34.7250003814697,58.2589988708496 33.4549999237061,59.5279998779297 31.8899993896484,59.5279998779297 30.3239994049072,59.5279998779297 29.0540008544922,58.2589988708496 29.0540008544922,56.693000793457 29.0540008544922,55.1269989013672 30.3239994049072,53.8580017089844 31.8899993896484,53.8580017089844z M19.1350002288818,53.8580017089844C20.7000007629395,53.8580017089844 21.9700002670288,55.1269989013672 21.9700002670288,56.693000793457 21.9700002670288,58.2589988708496 20.7000007629395,59.5279998779297 19.1350002288818,59.5279998779297 17.5690002441406,59.5279998779297 16.2990002632141,58.2589988708496 16.2990007400513,56.693000793457 16.2990002632141,55.1269989013672 17.5690002441406,53.8580017089844 19.1350002288818,53.8580017089844z M6.37900018692017,53.8580017089844C7.94400024414063,53.8580017089844 9.21400022506714,55.1269989013672 9.21400022506714,56.693000793457 9.21400022506714,58.2589988708496 7.94400024414063,59.5279998779297 6.37900018692017,59.5279998779297 4.81300020217896,59.5279998779297 3.54300022125244,58.2589988708496 3.54300022125244,56.693000793457 3.54300022125244,55.1269989013672 4.81300020217896,53.8580017089844 6.37900018692017,53.8580017089844z M25.5120000839233,44.6459999084473C27.0780000686646,44.6459999084473 28.3479995727539,45.9150009155273 28.3479995727539,47.4809989929199 28.3479995727539,49.0470008850098 27.0780000686646,50.3160018920898 25.5120000839233,50.3160018920898 23.94700050354,50.3160018920898 22.6770000457764,49.0470008850098 22.6770000457764,47.4809989929199 22.6770000457764,45.9150009155273 23.94700050354,44.6459999084473 25.5120000839233,44.6459999084473z M12.7569999098778,44.6459999084473C14.3220002651215,44.6459999084473 15.592000246048,45.9150009155273 15.5920000076294,47.4809989929199 15.592000246048,49.0470008850098 14.3220002651215,50.3160018920898 12.7569999098778,50.3160018920898 11.1910003423691,50.3160018920898 9.92100024223328,49.0470008850098 9.92100024223328,47.4809989929199 9.92100024223328,45.9150009155273 11.1910003423691,44.6459999084473 12.7569999098778,44.6459999084473z M19.1350002288818,35.4329986572266C20.7000007629395,35.4329986572266 21.9700002670288,36.7019996643066 21.9700002670288,38.2680015563965 21.9700002670288,39.8339996337891 20.7000007629395,41.1030006408691 19.1350002288818,41.1030006408691 17.5690002441406,41.1030006408691 16.2990002632141,39.8339996337891 16.2990007400513,38.2680015563965 16.2990002632141,36.7019996643066 17.5690002441406,35.4329986572266 19.1350002288818,35.4329986572266z M36.8460006713867,9.92099952697754C37.6310005187988,9.92099952697754,38.2679996490479,10.5559997558594,38.2679996490479,11.33899974823L38.2679996490479,20.9659996032715 28.3549995422363,29.44700050354 28.3549995422363,36.851001739502C28.3549995422363,37.632999420166 27.7189998626709,38.2680015563965 26.9340000152588,38.2680015563965 26.1490001678467,38.2680015563965 25.5120000839233,37.632999420166 25.5120000839233,36.851001739502L25.5120000839233,28.1439990997314 35.4250011444092,19.6630001068115 35.4250011444092,11.33899974823C35.4250011444092,10.5559997558594,36.0610008239746,9.92099952697754,36.8460006713867,9.92099952697754z M1.42100048065186,9.92099952697754C2.20700073242188,9.92099952697754,2.8430004119873,10.5559997558594,2.8430004119873,11.33899974823L2.8430004119873,19.6630001068115 12.7560002207756,28.1439990997314 12.7560002207756,36.851001739502C12.7560003399849,37.632999420166 12.1190003380179,38.2680015563965 11.3340002894402,38.2680015563965 10.5490003824234,38.2680015563965 9.91200041770935,37.632999420166 9.91200041770935,36.851001739502L9.91200041770935,29.44700050354 0,20.9659996032715 0,11.33899974823C0,10.5559997558594,0.63700008392334,9.92099952697754,1.42100048065186,9.92099952697754z M19.1340007781982,0C19.9100003242493,3.5527136788005E-15,20.5460004806519,0.638000011444095,20.5460004806519,1.41799938678742L20.5460004806519,12.5430002212524 25.0270004272461,12.5430002212524C25.9270000457764,12.5430002212524,26.4280004501343,13.1059999465942,26.1389999389648,13.793999671936L19.6590003967285,29.2479991912842C19.3700003623962,29.9360008239746,18.8980002403259,29.9370002746582,18.6100001335144,29.2479991912842L12.1290003657341,13.793999671936C11.8410003334284,13.1059999465942,12.3420003354549,12.5430002212524,13.2420003414154,12.5430002212524L17.7220001220703,12.5430002212524 17.7220001220703,1.41799938678742C17.7220001220703,0.638000011444095,18.3580002784729,3.5527136788005E-15,19.1340007781982,0z"/></svg>
