<svg  xmlns="http://www.w3.org/2000/svg" width=" 70.8661" height=" 70.8661" viewBox="-0 -0 70.8661 70.8661"><path d="M1.41699981689453,34.0159986357093L69.4490013122559,34.0159986357093C70.2280006408691,34.0159986357093 70.8660011291504,34.652999673307 70.8660011291504,35.4329984526038 70.8660011291504,36.2120015959144 70.2280006408691,36.8499982694984 69.4490013122559,36.8499982694984L35.4350900650024,36.8499982694984 35.5040769577026,36.8577306608558C35.6697816848755,36.8951948027015,35.8310008049011,37.064563546598,35.9570007324219,37.3660009245277L42.4380006790161,52.8199994902015C42.7260007858276,53.5079992155433,42.2250003814697,54.0709989408851,41.3240003585815,54.0709989408851L36.8450002670288,54.0709989408851 36.8450002670288,69.4479978422523C36.8450002670288,70.2279966215491 36.2090005874634,70.8659971098304 35.4330005645752,70.8659971098304 34.657000541687,70.8659971098304 34.0210008621216,70.2279966215491 34.0210008621216,69.4479978422523L34.0210008621216,54.0709989408851 29.5400016307831,54.0709989408851C28.6400006711483,54.0709989408851,28.1390006691217,53.5079992155433,28.428001113236,52.8199994902015L34.9080004692078,37.3670003752112C35.0344381332397,37.0655629972816,35.1959028244019,36.8958127836585,35.3616623878479,36.8579175810218L35.430712223053,36.8499982694984 1.41699981689453,36.8499982694984C0.637001037597656,36.8499982694984 0,36.2120015959144 0,35.4329984526038 0,34.652999673307 0.637001037597656,34.0159986357093 1.41699981689453,34.0159986357093z M35.4330005645752,4.2632564145606E-14C36.2090005874634,-2.04622736532656E-07,36.8450002670288,0.637999806821355,36.8450002670288,1.41799977821113L36.8450002670288,16.7949998716712 41.3240003585815,16.7949998716712C42.2250003814697,16.7949998716712,42.7260007858276,17.357999597013,42.4380006790161,18.0459993223548L35.9570007324219,33.4999997953773C35.6690006256104,34.1879995207191,35.19700050354,34.1879995207191,34.9080004692078,33.4990003446937L28.428001113236,18.0459993223548C28.1390006691217,17.357999597013,28.6400006711483,16.7949998716712,29.5400016307831,16.7949998716712L34.0210008621216,16.7949998716712 34.0210008621216,1.41799977821113C34.0210008621216,0.637999806821355,34.657000541687,-2.04622736532656E-07,35.4330005645752,4.2632564145606E-14z"/></svg>
