<svg  xmlns="http://www.w3.org/2000/svg" width=" 70.8661" height=" 70.8661" viewBox="-0 -0 70.8661 70.8661"><path d="M36.851,60.903L36.851,36.85 60.904,36.85C60.191,49.791,49.792,60.191,36.851,60.903 M9.963,36.85L34.016,36.85 34.016,60.903C21.075,60.191,10.676,49.791,9.963,36.85 M34.016,9.963L34.016,34.015 9.963,34.015C10.675,21.074,21.075,10.674,34.016,9.963 M60.904,34.015L36.851,34.015 36.851,9.963C49.792,10.675,60.191,21.074,60.904,34.015 M69.449,34.015L63.744,34.015C63.029,19.488,51.378,7.838,36.851,7.122L36.851,1.417C36.851,0.634 36.216,0 35.434,0 34.651,0 34.016,0.634 34.016,1.417L34.016,7.122C19.489,7.838,7.838,19.488,7.123,34.015L1.418,34.015C0.635,34.015 0,34.65 0,35.433 0,36.215 0.635,36.85 1.418,36.85L7.123,36.85C7.838,51.377,19.489,63.028,34.016,63.743L34.016,69.448C34.016,70.231 34.651,70.866 35.434,70.866 36.216,70.866 36.851,70.231 36.851,69.448L36.851,63.743C51.378,63.028,63.029,51.377,63.744,36.85L69.449,36.85C70.232,36.85 70.867,36.215 70.867,35.433 70.867,34.65 70.232,34.015 69.449,34.015"/></svg>
