<svg  xmlns="http://www.w3.org/2000/svg" width=" 70.8661" height=" 70.8661" viewBox="-6.9138 -2.5927 70.8661 70.8661"><path d="M6.9184,38.5986C9.8864,36.4936 13.5804,36.7826 16.0344,39.1086 17.1284,40.1456 18.0564,41.4026 19.2764,42.2486 20.2814,42.9466 21.5934,43.5156 22.7904,43.5576 25.0794,43.6396 26.5084,42.0056 27.0254,39.1246 27.0254,39.1246 26.9624,17.2666 27.0184,11.7136 27.0324,10.3456 28.3234,9.26560000000001 29.6124,9.27360000000001 30.9324,9.2806 32.0754,10.3186 32.1304,11.7506 32.2114,13.8536 32.1564,29.6856 32.1564,29.6856 33.0904,29.4226 34.0374,29.2206 34.9894,29.0746 34.9894,29.0746 34.9124,13.4326 34.9424,7.4066 34.9514,5.70460000000001 36.1144,4.55460000000001 37.6194,4.57660000000001 39.1354,4.59760000000001 40.1444,5.7276 40.1564,7.5166 40.1944,13.2896 40.1964,28.8496 40.1964,28.8496 41.1474,28.9116 42.0934,29.0326 43.0304,29.2056 43.0304,29.2056 42.9624,17.5746 42.9804,13.2666 42.9864,11.7256 44.1404,10.4626 45.4994,10.4196 46.9334,10.3746 48.0844,11.6326 48.1014,13.3026 48.1314,16.3096 48.1224,30.7346 48.1224,30.7346 49.0814,31.1426 50.0144,31.6156 50.9174,32.1486 50.9174,32.1486 50.8474,22.5056 50.9814,19.6006 51.0474,18.1816 52.3044,17.2506 53.6704,17.3026 54.9684,17.3516 56.0864,18.3016 56.1104,19.6936 56.1324,20.9606 56.1634,48.2706 56.1634,48.3336 56.1634,57.2936 48.8994,64.5576 39.9394,64.5576 35.1824,64.5576 30.9054,62.5096 27.9384,59.2476 24.1054,55.4976 8.9424,40.5376 6.9184,38.5986 M2.8344,38.2976C2.8344,38.2976 23.6754,58.7246 26.0624,61.0606 29.6214,64.9416 34.6744,67.1656 39.9394,67.1656 50.3234,67.1656 58.7714,58.7176 58.7714,48.3336 58.7714,48.3336 58.7354,20.5946 58.7174,19.6476 58.6704,16.9296 56.5424,14.8006 53.7684,14.6966L53.5634,14.6926C52.5144,14.6926 51.5374,14.9906 50.7204,15.5056 50.7174,14.5426 50.7134,13.7636 50.7094,13.2756 50.6784,10.2116 48.4244,7.8106 45.5754,7.8106L45.4174,7.8136C44.4484,7.84360000000001 43.5414,8.1626 42.7714,8.6886 42.7694,8.2576 42.7664,7.8596 42.7654,7.4996 42.7434,4.28660000000001 40.6434,2.0116 37.6574,1.9686L37.6564,1.9686C34.6034,1.9686,32.3504,4.30160000000001,32.3354,7.3946L32.3354,7.45660000000001C31.5504,6.95960000000001 30.6224,6.67160000000001 29.6284,6.6656 26.8164,6.6656 24.4384,8.9646 24.4104,11.6856 24.3584,16.8716 24.4104,36.4336 24.4174,38.8816 23.9954,40.9456 23.2194,40.9526 22.9554,40.9526L22.9534,40.9526C22.3054,40.9306 21.4734,40.5996 20.7634,40.1056 20.2084,39.7216 19.6554,39.1256 19.0694,38.4936 18.6644,38.0576 18.2574,37.6216 17.8284,37.2156 16.0294,35.5096 13.6874,34.5706 11.2364,34.5706 9.1774,34.5706 7.1624,35.2276 5.4094,36.4716z"/></svg>
