<svg  xmlns="http://www.w3.org/2000/svg" width=" 70.8661" height=" 70.8661" viewBox="-17.2844 -0 70.8661 70.8661"><path d="M18.425624370575,59.5279990432587C18.704749584198,59.5279998779297,18.9839987754822,59.6099998801947,19.2249989509583,59.7739996612072L29.1459994316101,66.5439991950989C29.5329985618591,66.808000087738,29.7649989128113,67.2469997406006,29.7649989128113,67.7150001525879L29.7649989128113,69.4490003585815C29.7649989128113,70.2320003509521 29.1299986839294,70.8669996261597 28.3469996452332,70.8669996261597 27.5639986991882,70.8669996261597 26.9299998283386,70.2320003509521 26.9299998283386,69.4490003585815L26.9299998283386,68.5989999771118 9.92199873924255,68.5989999771118 9.92199873924255,69.4490003585815C9.92199945449829,70.2320003509521 9.28699946403503,70.8669996261597 8.50399911403656,70.8669996261597 7.72199940681458,70.8669996261597 7.08699941635132,70.2320003509521 7.08699940061572,69.4490003585815L7.08699940061572,67.7150001525879C7.08699941635132,67.2469997406006,7.3179994225502,66.808000087738,7.70599949359894,66.5439991950989L17.6269993782043,59.7739996612072C17.8674998283386,59.6099998801947,18.1464991569519,59.5279998779297,18.425624370575,59.5279990432587z M18.4259991645813,53.2909998893738C20.7739996910095,53.2909998893738 22.6779990196228,54.1789999008179 22.6779990196228,55.2750000953674 22.6779990196228,56.3709998130798 20.7739996910095,57.2589998245239 18.4259991645813,57.2590000629425 16.0779995918274,57.2589998245239 14.1739993095398,56.3709998130798 14.1739988327026,55.2750000953674 14.1739993095398,54.1789999008179 16.0779995918274,53.2909998893738 18.4259991645813,53.2909998893738z M18.4259991645813,14.1730003356934C9.5029993057251,14.1730003356934,2.83499956130981,17.1660003662109,2.83499908447266,19.8419990539551L2.83499908447266,50.628999710083C6.04099941253662,48.2760000228882 11.6969995498657,46.7720003128052 18.4259991645813,46.7720003128052 25.1550002098084,46.7720003128052 30.8099989891052,48.2760000228882 34.0160002708435,50.628999710083L34.0160002708435,19.8419990539551C34.0160002708435,17.1660003662109,27.3489985466003,14.1730003356934,18.4259991645813,14.1730003356934z M18.4259991645813,11.3380012512207C28.9299998283386,11.3380012512207,36.8509993553162,14.9939994812012,36.8509993553162,19.8419990539551L36.8509993553162,55.2750000953674C36.8509993553162,58.4219999313354,33.5020003318787,61.0579998493195,28.2879996299744,62.5269994735718L25.0899996757507,60.3440002799034C30.4649996757507,59.3389998823404 34.0160002708435,57.2259998321533 34.0160002708435,55.2750000953674 34.0160002708435,52.5989999771118 27.3489985466003,49.6070003509521 18.4259991645813,49.6070003509521 9.5029993057251,49.6070003509521 2.83499956130981,52.5989999771118 2.83499908447266,55.2750000953674 2.83499956130981,57.2259998321533 6.38599944114685,59.3389998823404 11.7609996795654,60.3440002799034L8.56299889087677,62.5269994735718C3.34899950027466,61.0579998493195,-4.76837158203125E-07,58.4209998846054,0,55.2750000953674L0,19.8419990539551C-4.76837158203125E-07,14.9939994812012,7.92199939489365,11.3380012512207,18.4259991645813,11.3380012512207z M8.50399911403656,0C9.28699946403503,0,9.92199945449829,0.633998870849609,9.92199873924255,1.41699981689453L9.92199873924255,2.26800155639648 26.9299998283386,2.26800155639648 26.9299998283386,1.41699981689453C26.9299998283386,0.633998870849609 27.5639986991882,0 28.3469996452332,0 29.1299986839294,0 29.7649989128113,0.633998870849609 29.7649989128113,1.41699981689453L29.7649989128113,3.1510009765625C29.7649989128113,3.61899948120117,29.5329985618591,4.05799865722656,29.1459994316101,4.32199859619141L19.2249989509583,11.0919990539551C18.7429995536804,11.4199981689453,18.1079993247986,11.4199981689453,17.6269993782043,11.0919990539551L7.70599949359894,4.32199859619141C7.3179994225502,4.05799865722656,7.08699941635132,3.61899948120117,7.08699940061572,3.1510009765625L7.08699940061572,1.41699981689453C7.08699941635132,0.633998870849609,7.72199940681458,0,8.50399911403656,0z"/></svg>
