<svg  xmlns="http://www.w3.org/2000/svg" width=" 70.8661" height=" 70.8661" viewBox="-17.2844 -5.1853 70.8661 70.8661"><path transform="scale(1,-1) translate(0,-60.4955)" d="M34.016,22.678L2.835,22.678 2.835,2.836 34.016,2.836z M26.932,52.126L9.922,52.126 9.922,25.512 26.929,25.512z M34.016,0.001L2.835,0.001C1.272,0.001,0,1.272,0,2.834L0,22.678C0,24.24,1.272,25.512,2.835,25.512L7.087,25.512 7.087,52.126C7.087,53.158 7.641,54.064 8.466,54.56 8.816,54.77 15.315,59.144 17.613,60.69 17.625,60.698 17.634,60.704 17.646,60.712 17.869,60.86 18.134,60.946 18.42,60.946 18.696,60.946 18.952,60.864 19.17,60.726 19.199,60.708 19.22,60.692 19.25,60.672 21.57,59.11 27.993,54.784 28.331,54.59 29.186,54.102 29.764,53.18 29.764,52.126L29.764,25.512 34.016,25.512C35.579,25.512,36.851,24.24,36.851,22.678L36.851,2.834C36.851,1.272,35.579,0.001,34.016,0.001"/></svg>
