<svg  xmlns="http://www.w3.org/2000/svg" width=" 70.8661" height=" 70.8661" viewBox="-0 -5.1853 70.8661 70.8661"><path d="M2.835,41.103C2.835,38.755 4.739,36.851 7.087,36.851 9.435,36.851 11.339,38.755 11.339,41.103 11.339,43.452 9.435,45.355 7.087,45.355 4.739,45.355 2.835,43.452 2.835,41.103 M17.085,41.919L26.442,34.018C26.442,34.018 40.981,34.005 41.103,34.005 43.451,34.005 45.355,32.103 45.355,29.756 45.355,27.409 43.451,25.506 41.103,25.506L21.101,25.506 14.187,29.241C14.468,14.634 26.429,2.835 41.103,2.835 55.952,2.835 68.032,14.916 68.032,29.765 68.032,44.613 55.952,56.693 41.103,56.693 30.626,56.693 21.534,50.676 17.085,41.919 M0,41.101C0,45.006 3.179,48.184 7.087,48.184 8.852,48.184 10.465,47.531 11.707,46.459L14.862,43.795C19.885,53.151 29.762,59.528 41.103,59.528 57.515,59.528 70.867,46.176 70.867,29.765 70.867,13.353 57.515,0 41.103,0 24.691,0 11.339,13.353 11.339,29.765 11.339,30.101 11.353,30.433 11.364,30.766L3.335,35.103C1.336,36.357,0,38.573,0,41.101"/></svg>
