<svg  xmlns="http://www.w3.org/2000/svg" width=" 70.8661" height=" 70.8661" viewBox="-6.9138 -6.9138 70.8661 70.8661"><path d="M11.9060001373291,38.5509986877441L44.7879981994629,38.5509986877441C45.8839988708496,38.5509986877441 46.7719993591309,39.439998626709 46.7719993591309,40.5359992980957 46.7719993591309,41.6310005187988 45.8839988708496,42.5200004577637 44.7879981994629,42.5200004577637L11.9060001373291,42.5200004577637C10.8100004196167,42.5200004577637 9.92199993133545,41.6310005187988 9.92199993133545,40.5359992980957 9.92199993133545,39.439998626709 10.8100004196167,38.5509986877441 11.9060001373291,38.5509986877441z M11.9060001373291,26.3619995117188L44.7879981994629,26.3619995117188C45.8839988708496,26.3619995117188 46.7719993591309,27.2509994506836 46.7719993591309,28.3470001220703 46.7719993591309,29.4419994354248 45.8839988708496,30.3309993743897 44.7879981994629,30.3309993743897L11.9060001373291,30.3309993743897C10.8100004196167,30.3309993743897 9.92199993133545,29.4419994354248 9.92199993133545,28.3470001220703 9.92199993133545,27.2509994506836 10.8100004196167,26.3619995117188 11.9060001373291,26.3619995117188z M11.9060001373291,14.1730003356934L44.7879981994629,14.1730003356934C45.8839988708496,14.1730003356934 46.7719993591309,15.0620002746582 46.7719993591309,16.1580009460449 46.7719993591309,17.2530002593994 45.8839988708496,18.1420001983643 44.7879981994629,18.1420001983643L11.9060001373291,18.1420001983643C10.8100004196167,18.1420001983643 9.92199993133545,17.2530002593994 9.92199993133545,16.1580009460449 9.92199993133545,15.0620002746582 10.8100004196167,14.1730003356934 11.9060001373291,14.1730003356934z M2.83500051498413,2.83500051498413L2.83500051498413,53.859001159668 53.859001159668,53.859001159668 53.859001159668,2.83500051498413z M1.41800034046173,0L55.2760009765625,0C56.0559997558594,3.5527136788005E-15,56.693000793457,0.638000011444095,56.693000793457,1.41800034046173L56.693000793457,55.2760009765625C56.693000793457,56.0550003051758,56.0559997558594,56.693000793457,55.2760009765625,56.693000793457L1.41800034046173,56.693000793457C0.638999998569492,56.693000793457,3.5527136788005E-15,56.0550003051758,0,55.2760009765625L0,1.41800034046173C3.5527136788005E-15,0.638000011444095,0.638999998569492,3.5527136788005E-15,1.41800034046173,0z"/></svg>
