<svg  xmlns="http://www.w3.org/2000/svg" width=" 70.8661" height=" 70.8661" viewBox="-0 -5.1853 70.8661 70.8661"><path d="M60.9449996948242,48.1899995803833C58.2089996337891,48.1899995803833 55.984001159668,50.4159998893738 55.984001159668,53.1510000228882 55.984001159668,55.8859996795654 58.2089996337891,58.1119995117188 60.9449996948242,58.1119995117188 63.6800003051758,58.1119995117188 65.9049987792969,55.8859996795654 65.9049987792969,53.1510000228882 65.9049987792969,50.4159998893738 63.6800003051758,48.1899995803833 60.9449996948242,48.1899995803833z M9.92099952697754,48.1899995803833C7.18599987030029,48.1899995803833 4.96099996566772,50.4159998893738 4.96099948883057,53.1510000228882 4.96099996566772,55.8859996795654 7.18599987030029,58.1119995117188 9.92099952697754,58.1119995117188 12.6560001373291,58.1119995117188 14.8819999694824,55.8859996795654 14.8820009231567,53.1510000228882 14.8819999694824,50.4159998893738 12.6560001373291,48.1899995803833 9.92099952697754,48.1899995803833z M1.41699969768524,42.549000066052L69.447998046875,42.549000066052C70.2310028076172,42.548999786377 70.8659973144531,43.1839997768402 70.8659973144531,43.9659997224808 70.8659973144531,44.7489998340607 70.2310028076172,45.3839998245239 69.447998046875,45.3840005397797L61.9959983825684,45.3840005397797C61.9609985351563,45.3839998245239 61.9589996337891,45.4299998283386 61.9949989318848,45.4350004196167 65.7969970703125,45.9499998092651 68.7399978637695,49.2099995613098 68.7399978637695,53.1510000228882 68.7399978637695,57.9699993133545 64.3430023193359,61.7819995880127 59.3499984741211,60.7870006561279 56.3660011291504,60.1919994354248 53.9519996643066,57.8099994659424 53.326000213623,54.8319997787476 52.3450012207031,50.1659998893738 55.5699996948242,46.0119998455048 59.9090003967285,45.4330003261566 59.9449996948242,45.4279997348785 59.9440002441406,45.3839998245239 59.9080009460449,45.3840005397797L10.9720001220703,45.3840005397797C10.9370002746582,45.3839998245239 10.9359998703003,45.4299998283386 10.9709987640381,45.4350004196167 14.7740001678467,45.9499998092651 17.7169990539551,49.2099995613098 17.7169990539551,53.1510000228882 17.7169990539551,57.9699993133545 13.3199996948242,61.7819995880127 8.32600021362305,60.7870006561279 5.34200000762939,60.1919994354248 2.92899990081787,57.8099994659424 2.30200004577637,54.8319997787476 1.32099997997284,50.1659998893738 4.5460000038147,46.0119998455048 8.88500022888184,45.4330003261566 8.92099952697754,45.4279997348785 8.92000007629395,45.3839998245239 8.88399982452393,45.3840005397797L1.41699969768524,45.3840005397797C0.63400000333786,45.3839998245239 0,44.7489998340607 0,43.9659997224808 0,43.1839997768402 0.63400000333786,42.548999786377 1.41699969768524,42.549000066052z M8.50399875640869,14.1269989013672C9.59899997711182,14.1269989013672 10.4879999160767,16.0510005950928 10.4879999160767,18.4260005950928 10.4879999160767,20.8010005950928 9.59899997711182,22.7250003814697 8.50399875640869,22.7250003814697 7.40799999237061,22.7250003814697 6.51900005340576,20.8010005950928 6.5189995765686,18.4260005950928 6.51900005340576,16.0510005950928 7.40799999237061,14.1269989013672 8.50399875640869,14.1269989013672z M13.0209999084473,2.83499908447266C15.4130001068115,6.09600067138672 17.007999420166,11.8509998321533 17.007999420166,18.4260005950928 17.007999420166,25.0009994506836 15.4130001068115,30.7550001144409 13.0209999084473,34.0160007476807L62.3619995117188,34.0160007476807C65.0380020141602,34.0159997940063 68.0309982299805,27.3489999771118 68.0309982299805,18.4260005950928 68.0309982299805,9.50299835205078 65.0380020141602,2.83499908447266 62.3619995117188,2.83499908447266z M8.50399875640869,2.83499908447266C6.5789999961853,2.83499908447266 2.83400011062622,8.3380012512207 2.8340003490448,18.4260005950928 2.83400011062622,28.5129995346069 6.5789999961853,34.0159997940063 8.50399875640869,34.0160007476807L8.50500011444092,34.0160007476807C10.4289999008179,34.0139999389648 14.1730003356934,28.5120000839233 14.1730003356934,18.4260005950928 14.1730003356934,8.34099960327148 10.4300003051758,2.8380012512207 8.50500011444092,2.83499908447266z M8.50399875640869,0L62.3619995117188,0C67.2099990844727,0 70.8659973144531,7.92200088500977 70.8659973144531,18.4260005950928 70.8659973144531,28.9299993515015 67.2099990844727,36.8509998321533 62.3619995117188,36.8509998321533L8.50399875640869,36.8509998321533C3.80699992179871,36.8509998321533 0,28.6009998321533 0,18.4260005950928 0,8.25 3.80699992179871,0.00099945068359375 8.50399875640869,0z"/></svg>
