<svg  xmlns="http://www.w3.org/2000/svg" width=" 70.8661" height=" 70.8661" viewBox="-6.9138 -6.9138 70.8661 70.8661"><path d="M12.9689998626709,21.2600002288818L23.8819999694824,21.2600002288818C24.4979991912842,21.2600002288818,25.0020008087158,21.7779998779297,25.0020008087158,22.4099998474121L25.0020008087158,23.4500007629395C25.0020008087158,24.0820007324219 24.4969997406006,24.6000003814697 23.8819999694824,24.6000003814697 22.3279991149902,24.6000003814697 20.6389999389648,25.117000579834 20.6389999389648,27.2169990539551 20.6389999389648,30.306999206543 22.7999992370606,31.0270004272461 24.9029998779297,31.3490009307861 26.0049991607666,31.5179996490479 26.9290008544922,32.2859992980957 26.9290008544922,33.4300003051758L26.9290008544922,44.6910018920898C26.9290008544922,45.8339996337891,26.0160007476807,46.7719993591309,24.9029998779297,46.7719993591309L11.9479999542236,46.7719993591309C10.835000038147,46.7719993591309,9.92199993133545,45.8359985351563,9.92199993133545,44.6910018920898L9.92199993133545,33.4300003051758C9.92199993133545,32.2849998474121 10.8459997177124,31.5179996490479 11.9479999542236,31.3490009307861 14.0509996414185,31.0270004272461 16.2129993438721,30.306999206543 16.2129993438721,27.2169990539551 16.2129993438721,25.7520008087158 15.0710000991821,24.621000289917 13.6499996185303,24.6410007476807L12.9689998626709,24.6000003814697C12.3540000915527,24.6000003814697,11.8489999771118,24.0820007324219,11.8489999771118,23.4500007629395L11.8489999771118,22.4099998474121C11.8489999771118,21.7770004272461,12.3529996871948,21.2600002288818,12.9689998626709,21.2600002288818z M2.83500051498413,2.83500051498413L2.83500051498413,53.859001159668 53.859001159668,53.859001159668 53.859001159668,2.83500051498413z M1.41800034046173,0L55.2760009765625,0C56.0559997558594,3.5527136788005E-15,56.693000793457,0.638000011444095,56.693000793457,1.41800034046173L56.693000793457,55.2760009765625C56.693000793457,56.0550003051758,56.0559997558594,56.693000793457,55.2760009765625,56.693000793457L1.41800034046173,56.693000793457C0.638999998569492,56.693000793457,3.5527136788005E-15,56.0550003051758,0,55.2760009765625L0,1.41800034046173C3.5527136788005E-15,0.638000011444095,0.638999998569492,3.5527136788005E-15,1.41800034046173,0z"/></svg>
