<svg  xmlns="http://www.w3.org/2000/svg" width=" 70.8661" height=" 70.8661" viewBox="-2.5927 -2.5927 70.8661 70.8661"><path d="M32.5989988093947,43.9370002746582C34.9440000300979,43.9370002746582 36.8510015254592,45.8450012207031 36.8510015254592,48.1889991760254 36.8510015254592,50.5340003967285 34.9440000300979,52.4410018920898 32.5989988093947,52.4410018920898 30.2539994960403,52.4410018920898 28.3469999080276,50.5340003967285 28.3469999080276,48.1889991760254 28.3469999080276,45.8450012207031 30.2539994960403,43.9370002746582 32.5989988093947,43.9370002746582z M32.5989988093947,11.5869998931885C35.4700010066604,11.5869998931885 38.0730016475295,12.6079998016357 39.9280011897658,14.4630002975464 41.7830007320022,16.318000793457 42.8040006404494,18.9209995269775 42.8040006404494,21.7919998168945 42.8040006404494,25.4029998779297 40.2840001826858,29.0599994659424 37.9430005794143,30.9300003051758L37.4830014949416,31.2959995269775C34.6380002742385,33.5620002746582,34.5829999690627,33.6049995422363,34.5829999690627,36.75L34.5829999690627,37.4539985656738C34.5829999690627,38.548999786377 33.6949994807815,39.4379997253418 32.5989988093947,39.4379997253418 31.5030000453567,39.4379997253418 30.6149995570754,38.548999786377 30.6149995570754,37.4539985656738L30.6149995570754,36.75C30.6149995570754,31.9220008850098,31.6709993129348,30.8500003814697,35.0120008235549,28.1909999847412L35.4659993892287,27.8299999237061C37.0989988093947,26.5249996185303 38.8349988704299,23.9650001525879 38.8349988704299,21.7919998168945 38.8349988704299,19.9549999237061 38.2429998164748,18.3910007476807 37.1209981685256,17.2700004577637 35.9999997859572,16.1480007171631 34.4360006099319,15.5559997558594 32.5989988093947,15.5559997558594 28.7520005946731,15.5559997558594 26.3630006557082,17.9459991455078 26.3630006557082,21.7919998168945 26.3630006557082,22.8880004882813 25.4740007167434,23.7759990692139 24.3780000453567,23.7759990692139 23.2830007320022,23.7759990692139 22.3939988856887,22.8880004882813 22.3939988856887,21.7919998168945 22.3939988856887,15.7840003967285 26.5899999385451,11.5869998931885 32.5989988093947,11.5869998931885z M32.5989988093947,0C50.5740010982131,0 65.1969983821486,14.6239995956421 65.1969983821486,32.5989990234375 65.1969983821486,40.5400009155273 62.3930013423537,48.0029983520508 57.252998138008,53.9199981689453L57.2599981074904,53.9269981384277 60.4290006404494,57.0960006713867C61.0680005794143,57.7350006103516,61.0260007625197,58.4889984130859,60.3349988704299,58.7709999084473L44.805000091133,65.0970001220703C44.1139981990432,65.3789978027344,43.7799985652541,65.0439987182617,44.0610006099319,64.3519973754883L50.3870008235549,48.8240013122559C50.668998504219,48.1319999694824,51.4230001216506,48.0900001525879,52.0620000606154,48.7290000915527L55.2459981685256,51.9129981994629C59.85399987751,46.5359992980957 62.3629987483596,39.7809982299805 62.3629987483596,32.5989990234375 62.3629987483596,16.1870002746582 49.0099981074904,2.83500003814697 32.5989988093947,2.83499979972839 16.1870000606154,2.83500003814697 2.83499982410422,16.1870002746582 2.83499982410422,32.5989990234375 2.83499982410422,43.1030006408691 8.46699979358664,52.9410018920898 17.5319993739699,58.2729988098145 18.2070005183791,58.6699981689453 18.4319989925002,59.5390014648438 18.0349996333694,60.2140007019043 17.7709996944045,60.6619987487793 17.2980001216506,60.9119987487793 16.8120000606154,60.9119987487793 16.5680005794143,60.9119987487793 16.3209989314651,60.8489990234375 16.0949990993117,60.7169990539551 6.16800000720968,54.8769989013672 -2.14042756851995E-07,44.1030006408691 0,32.5989990234375 -2.14042756851995E-07,14.6239995956421 14.6239993815993,0 32.5989988093947,0z"/></svg>
