<svg  xmlns="http://www.w3.org/2000/svg" width=" 70.8661" height=" 70.8661" viewBox="-5.1853 -2.5927 70.8661 70.8661"><path d="M17.0957702206517,8.5314347964013C17.5986178921605,8.5474567618221 18.0760005520726,8.83212473988533 18.3180011319066,9.31199979782104 18.6690009640599,10.0119997262955 18.3869994686985,10.8639998435974 17.6880000637913,11.2159993648529 8.52600036133771,15.8199996948242 2.8350003765965,25.0460004806519 2.83500061501508,35.2919988632202 2.8350003765965,50.1409997940063 14.9150003003026,62.221001625061 29.7640002774144,62.221001625061 44.6129993008519,62.221001625061 56.6930011319066,50.1409997940063 56.6930011319066,35.2919988632202 56.6930011319066,25.0719995498657 51.022999148264,15.856999874115 41.8950007962132,11.2429995536804 41.1969989346409,10.889999628067 40.9170001553441,10.0369997024536 41.2700007962132,9.33899980783463 41.6220019863987,8.63899973034859 42.4749988125706,8.35899972915649 43.1749995755101,8.71399989724159 53.2620013760472,13.8129997253418 59.5280002163792,23.9969997406006 59.5280002163792,35.2919988632202 59.5280002163792,51.7039995193481 46.1759990261937,65.0560007095337 29.7640002774144,65.0560007095337 13.3520005749608,65.0560007095337 3.38449524406315E-07,51.7039995193481 0,35.2919988632202 3.38449524406315E-07,23.967999458313 6.29000030030255,13.771999835968 16.4139998959446,8.6830001026392 16.6333755062962,8.57237473130226 16.8672030972386,8.52415207307786 17.0957702206517,8.5314347964013z M29.7640002774144,0C30.8600009488011,0,31.7479995297337,0.887999534606934,31.7479995297337,1.98399925231934L31.7479995297337,30.331000328064C31.7479995297337,31.4259996414185 30.8600009488011,32.3149995803833 29.7640002774144,32.3149995803833 28.6679996060276,32.3149995803833 27.780001025095,31.4259996414185 27.780001025095,30.331000328064L27.780001025095,1.98399925231934C27.780001025095,0.887999534606934,28.6679996060276,0,29.7640002774144,0z" /></svg>
