<svg  xmlns="http://www.w3.org/2000/svg" width=" 70.8661" height=" 70.8661" viewBox="-6.9138 -12.9633 70.8661 70.8661"><path d="M11.33899974823,34.0169982314033C8.99499988555909,34.0169982314033 7.08699989318848,35.9239997267646 7.08700037002564,38.2680014967841 7.08699989318848,40.61299890279 8.99499988555909,42.5200003981513 11.33899974823,42.5200003981513 13.6840000152588,42.5200003981513 15.5909996032715,40.61299890279 15.5909996032715,38.2680014967841 15.5909996032715,35.9239997267646 13.6840000152588,34.0169982314033 11.33899974823,34.0169982314033z M39.6860008239746,34.0159987807197C37.3409996032715,34.0159987807197 35.4339981079102,35.923000276081 35.4339981079102,38.2680014967841 35.4339981079102,40.61299890279 37.3409996032715,42.5200003981513 39.6860008239746,42.5200003981513 42.0309982299805,42.5200003981513 43.9379997253418,40.61299890279 43.9379997253418,38.2680014967841 43.9379997253418,35.923000276081 42.0309982299805,34.0159987807197 39.6860008239746,34.0159987807197z M2.83500051498413,22.6779994368476L2.83500051498413,36.8510016798896 4.39499998092652,36.8510016798896C5.05399990081787,33.6199988722724 7.91699981689453,31.1819991469306 11.33899974823,31.1819991469306 14.7659997940064,31.1819991469306 17.6319999694824,33.6259993910712 18.2849998474121,36.86299890279 18.2849998474121,36.8590011000556 18.2840003967285,36.8540000319404 18.2830009460449,36.8510016798896L32.742000579834,36.8499984145087C33.306999206543,34.0779990553779,35.4959983825684,31.8899993300361,38.2690010070801,31.3239993452949L38.2690010070801,28.3470000624579 18.3600006103516,28.3470000624579C18.0410003662109,28.3470000624579,17.7339992523193,28.2250003218574,17.5020008087158,28.0069999098701L11.8400001525879,22.6779994368476z M13.8100004196167,2.81499999760809L13.8100004196167,20.6389998793525 18.988000869751,25.5119990706367 33.6720008850098,25.5119990706367 33.6720008850098,2.81499999760809z M45.3549995422363,0.00100023321966347C46.1370010375977,0.000999940435129076,46.7719993591309,0.635999917976285,46.7719993591309,1.41799944638434L46.7719993591309,28.3470000624579 55.2760009765625,28.3470000624579C56.0589981079102,28.3470000624579 56.693000793457,28.9820002913398 56.693000793457,29.7639998793525 56.693000793457,30.5470008253974 56.0589981079102,31.1819991469306 55.2760009765625,31.1819991469306L45.3419990539551,31.1819991469306C44.5660018920898,31.1819991469306,43.9370002746582,30.5529994368476,43.9370002746582,29.7770003676337L43.9370002746582,1.41799944638434C43.9370002746582,0.635999917976285,44.5719985961914,0.000999940435129076,45.3549995422363,0.00100023321966347z M12.4119997024536,7.105427357601E-15L35.0699996948242,7.105427357601E-15C35.8530006408691,-5.96123683749283E-08,36.4869995117188,0.633999943725492,36.4869995117188,1.41700011491003L36.4869995117188,25.5119990706367 39.6860008239746,25.5119990706367C40.4690017700195,25.5119990706367,41.1030006408691,26.1459998488349,41.1030006408691,26.9290007948798L41.1030006408691,31.3239993452949C44.3339996337891,31.9829997420234 46.7729988098145,34.8460006117744 46.7729988098145,38.2680014967841 46.7729988098145,42.1749991774482 43.5940017700195,45.354999482624 39.6860008239746,45.354999482624 36.2639999389648,45.354999482624 33.4000015258789,42.9160003065986 32.742000579834,39.6850013136786L18.2830009460449,39.6860007643622C18.2859992980957,39.6739997267646 18.2870006561279,39.6619986891669 18.2889995574951,39.6500014662665 17.6439990997314,42.8979987502021 14.7740001678467,45.354999482624 11.33899974823,45.354999482624 7.90000009536744,45.354999482624 5.02699995040894,42.8909987807197 4.3880000114441,39.6360015273017 4.39099979400635,39.6520003676337 4.39200019836426,39.6689986586494 4.39499998092652,39.6860007643622L1.41800034046173,39.6860007643622C0.63499999046326,39.6860007643622,3.5527136788005E-15,39.0509986281318,0,38.2680014967841L0,21.2600001692695C3.5527136788005E-15,20.4769992232245,0.63499999046326,19.8430003523749,1.41800034046173,19.8430003523749L10.9949998855591,19.8430003523749 10.9949998855591,1.41700011491003C10.9949998855591,0.633999943725492,11.628999710083,-5.96123683749283E-08,12.4119997024536,7.105427357601E-15z" /></svg>
