<svg  xmlns="http://www.w3.org/2000/svg" width=" 70.8661" height=" 70.8661" viewBox="-12.9633 -12.0991 70.8661 70.8661"><path d="M41.811,43.937L29.056,43.937 29.056,2.834 41.811,2.834z M21.074,31.985L12.383,31.99C11.363,31.99 10.536,32.817 10.536,33.838 10.536,34.858 11.363,35.686 12.383,35.686L18.753,35.686 21.738,38.207C20.154,41.585 16.729,43.937 12.757,43.937 7.286,43.937 2.835,39.486 2.835,34.016 2.835,28.545 7.286,24.094 12.757,24.094 17.819,24.094 22,27.906 22.599,32.809z M43.229,0L27.638,0C26.855,0,26.221,0.635,26.221,1.417L26.221,34.767 25.496,34.374C25.499,34.254 25.514,34.137 25.514,34.016 25.514,26.982 19.791,21.26 12.757,21.26 5.723,21.26 0,26.982 0,34.016 0,41.049 5.723,46.771 12.757,46.771 17.592,46.771 21.808,44.068 23.971,40.093L25.156,41.095C25.461,41.358,25.83,41.538,26.221,41.666L26.221,45.354C26.221,46.137,26.855,46.771,27.638,46.771L43.229,46.771C44.012,46.771,44.646,46.137,44.646,45.354L44.646,1.417C44.646,0.634,44.012,0,43.229,0"/></svg>
