<svg  xmlns="http://www.w3.org/2000/svg" width=" 70.8661" height=" 70.8661" viewBox="-2.5927 -2.5927 70.8661 70.8661"><path d="M32.598999,16.299C33.689999,16.299,34.583001,17.191999,34.583001,18.283001L34.583001,46.912998C34.583001,48.004002 33.689999,48.896999 32.598999,48.896999 31.507,48.896999 30.614001,48.004002 30.614001,46.912998L30.614001,18.283001C30.614001,17.191999,31.507,16.299,32.598999,16.299z M32.598,2.8340006C16.16,2.8340001 2.8340005,16.16 2.8340005,32.598 2.8340005,49.035999 16.16,62.362 32.598,62.362 49.036,62.362 62.362,49.035999 62.362,32.598 62.362,16.16 49.036,2.8340001 32.598,2.8340006z M32.598,0C50.602002,0 65.196,14.595 65.196,32.598 65.196,50.602001 50.602002,65.196999 32.598,65.196999 14.594,65.196999 3.6869528E-07,50.602001 0,32.598 3.6869528E-07,14.595 14.594,0 32.598,0z"/></svg>
