<svg  xmlns="http://www.w3.org/2000/svg" width=" 70.8661" height=" 70.8661" viewBox="-19.8771 -9.5064 70.8661 70.8661"><path d="M1.41700048366684,14.1727505603133C2.20000011840958,14.1727504730225,2.83500010887283,14.8077504634857,2.83499987045425,15.5907508134842L2.83499987045425,48.1887493133545 15.5900002233138,48.1887493133545C16.37299926201,48.1887493133545 17.0070000402083,48.823751449585 17.0070000402083,49.6067485809326 17.0070000402083,50.3887500762939 16.37299926201,51.0237522125244 15.5900002233138,51.0237522125244L1.41700048366684,51.0237522125244C0.634000074063721,51.0237522125244,7.07258607235417E-08,50.3897495269775,0,49.6067485809326L0,15.5907508134842C7.07258607235417E-08,14.8077504634857,0.634000074063721,14.1727504730225,1.41700048366684,14.1727505603133z M24.0944996587386,0C24.2845001927962,0,24.4744988195052,0.172250747680664,24.618999551927,0.516750335693359L31.099001001512,15.9707502126694C31.3880005590071,16.6587505340576,30.8869992009749,17.2207505702972,29.9869995824446,17.2207508087158L25.5060005895247,17.2207508087158 25.5060005895247,28.1307506561279 25.5060005895247,29.7647504806519 25.5060005895247,30.964750289917 25.5060005895247,31.2607498168945 25.5060005895247,33.8027496337891 29.9869995824446,33.8027496337891C30.8869992009749,33.8027496337891,31.3880005590071,34.3647499084473,31.099001001512,35.0547504425049L24.618999551927,50.5067501068115C24.3299999944319,51.1967487335205,23.8589993230452,51.1967487335205,23.5699997655501,50.5087490081787L17.0890007726302,35.0547504425049C16.8010006658186,34.3647499084473,17.3020001165022,33.8027496337891,18.2019997350325,33.8027496337891L22.6830006353011,33.8027496337891 22.6830006353011,31.2607498168945 22.6830006353011,30.964750289917 22.6830006353011,29.7647504806519 22.6830006353011,28.1307506561279 22.6830006353011,17.2207508087158 18.2019997350325,17.2207508087158C17.3020001165022,17.2207505702972,16.8010006658186,16.6587505340576,17.0890007726302,15.9707502126694L23.5699997655501,0.516750335693359C23.714500497972,0.172250747680664,23.9044991246809,0,24.0944996587386,0z"/></svg>
