<svg  xmlns="http://www.w3.org/2000/svg" width=" 70.8661" height=" 70.8661" viewBox="-2.5927 -2.5927 70.8661 70.8661"><path d="M29.59,37.605L24.73,42.465 27.898,45.634C28.535,46.271,28.491,47.022,27.8,47.305L12.291,53.65C11.6,53.933,11.266,53.6,11.548,52.909L17.893,37.398C18.177,36.708,18.929,36.664,19.566,37.301L22.734,40.469 27.594,35.609 35.611,27.591 40.471,22.731 37.303,19.563C36.667,18.926,36.711,18.174,37.401,17.891L52.911,11.546C53.602,11.263,53.935,11.597,53.652,12.288L47.307,27.798C47.025,28.489,46.273,28.533,45.636,27.896L42.468,24.727 37.608,29.587z M32.599,62.362C16.161,62.362 2.835,49.036 2.835,32.598 2.835,16.16 16.161,2.834 32.599,2.834 49.037,2.834 62.362,16.16 62.362,32.598 62.362,49.036 49.037,62.362 32.599,62.362 M32.599,0C14.595,0 0,14.595 0,32.598 0,50.602 14.595,65.197 32.599,65.197 50.602,65.197 65.197,50.602 65.197,32.598 65.197,14.595 50.602,0 32.599,0"/></svg>
