<svg  xmlns="http://www.w3.org/2000/svg" width=" 70.8661" height=" 70.8661" viewBox="-0 -0 70.8661 70.8661"><path d="M7.488,28.242C5.241,30.458 5.241,34.054 7.488,36.27 9.735,38.488 13.377,38.488 15.624,36.27 17.87,34.054 17.87,30.458 15.624,28.242 13.377,26.024 9.735,26.024 7.488,28.242 M57.815,29.968C59.465,28.34,60.104,26.08,59.72,23.958L56.89,24.468C57.11,25.702 56.74,27.014 55.781,27.96 54.821,28.908 53.492,29.272 52.241,29.056L51.723,31.852C52.125,31.924 52.532,31.96 52.939,31.96 54.708,31.96 56.473,31.292 57.815,29.968 M66.657,23.64C66.157,23.146,65.442,22.93,64.744,23.052L59.72,23.958C60.104,26.08 59.465,28.34 57.815,29.968 56.473,31.292 54.708,31.96 52.939,31.96 52.532,31.96 52.125,31.924 51.723,31.852L50.806,36.808C50.679,37.494,50.902,38.2,51.403,38.696L55.612,42.848 58.77,39.732 56.834,36.858C56.708,36.672,56.679,36.432,56.759,36.22L58.759,30.9 64.149,28.926C64.364,28.846,64.606,28.876,64.797,29L67.708,30.91 70.866,27.794z M23.473,31.974L25.51,33.984C26.133,33.298,26.777,32.586,27.429,31.862L25.392,29.852C24.74,30.574,24.096,31.286,23.473,31.974 M5.461,38.284C5.459,38.284 5.457,38.282 5.456,38.28 5.454,38.278 5.453,38.278 5.451,38.276L5.446,38.27C4.805,37.638 4.288,36.928 3.891,36.172 3.827,36.052 3.774,35.926 3.717,35.802 3.66,35.682 3.6,35.564 3.549,35.44 3.088,34.334 2.851,33.136 2.879,31.92 2.927,29.78 3.78,27.836 5.273,26.416 5.333,26.354 5.385,26.288 5.446,26.228 5.694,25.982 5.956,25.762 6.225,25.554 7.652,24.294 9.552,22.68 11.675,20.904 9.096,20.876 6.512,21.698 4.389,23.366 4.061,23.654 3.747,23.932 3.467,24.186 3.364,24.28 3.273,24.382 3.174,24.48 0.026,27.784 -0.746,32.499 0.877,36.492 0.999,36.786 1.135,37.076 1.281,37.36 1.301,37.4 1.317,37.44 1.338,37.48 1.88,38.506 2.579,39.454 3.416,40.282L3.427,40.292C5.403,42.24,8.065,43.41,10.85,43.604z M3.174,24.48C1.196,26.412 0.067,29.01 0.003,31.858 -0.033,33.456 0.275,35.034 0.877,36.492 -0.746,32.499 0.026,27.784 3.174,24.48 M50.261,28.112L39.371,18.492 37.228,16.598 32.113,12.08C31.002,11.098 30.368,9.75 30.327,8.28 30.286,6.812 30.843,5.43 31.897,4.39 32.95,3.35 34.348,2.792 35.84,2.84 37.328,2.882 38.696,3.508 39.689,4.602L55.933,22.512C56.45,23.082,56.764,23.762,56.89,24.468L59.72,23.958C59.503,22.754,58.96,21.594,58.076,20.62L41.832,2.708C40.306,1.026 38.206,0.066 35.919,0.003 33.663,-0.052 31.57,0.758 29.964,2.292 29.1,2.984 11.456,17.14 4.389,23.366 6.512,21.698 9.096,20.876 11.675,20.904 16.822,16.6 23.271,11.36 27.46,7.974 27.458,8.102 27.448,8.23 27.451,8.36 27.515,10.616 28.489,12.688 30.194,14.196L35.333,18.734C32.462,21.966,28.787,26.086,25.392,29.852L27.429,31.862C30.856,28.064,34.574,23.894,37.476,20.628L48.342,30.226C49.329,31.098,50.504,31.638,51.723,31.852L52.241,29.056C51.528,28.932,50.839,28.622,50.261,28.112 M40.445,47.286C41.34,48.182 42.018,49.212 42.498,50.31 43.485,50.884 44.4,51.564 45.236,52.326 44.917,50.554 44.169,48.848 42.996,47.362 41.751,46.734 40.431,46.23 39.045,45.888z M20.922,55.826L18.842,53.746C18.606,54.104,18.383,54.47,18.171,54.844L20.31,56.954C20.501,56.57,20.701,56.192,20.922,55.826 M50.337,63.77L50.337,68.028 18.697,68.028 18.697,63.77C18.697,61.322,19.286,59.016,20.31,56.954L18.171,54.844C16.678,57.492,15.82,60.532,15.82,63.77L15.82,70.866 53.214,70.866 53.214,63.77C53.214,56.61 49.05,50.416 42.996,47.362 44.169,48.848 44.917,50.554 45.236,52.326 48.365,55.176 50.337,59.244 50.337,63.77 M3.421,40.288C3.423,40.29,3.425,40.29,3.427,40.292L3.416,40.282C3.418,40.284,3.42,40.286,3.421,40.288 M11.548,23.736C13.758,23.736,15.967,24.566,17.65,26.228L23.473,31.974C24.096,31.286,24.74,30.574,25.392,29.852L19.684,24.22C17.473,22.036 14.578,20.936 11.675,20.904 9.552,22.68 7.652,24.294 6.225,25.554 7.782,24.346 9.663,23.736 11.548,23.736 M40.023,48.308C43.388,51.628 43.388,57.03 40.024,60.35 36.659,63.672 31.185,63.672 27.82,60.35L10.85,43.604C8.065,43.41,5.403,42.24,3.427,40.292L18.171,54.844C18.383,54.47,18.606,54.104,18.842,53.746L20.922,55.826C20.701,56.192,20.501,56.57,20.31,56.954L25.786,62.358C28.03,64.573 30.975,65.68 33.922,65.68 36.867,65.68 39.815,64.573 42.057,62.358L42.058,62.358C44.819,59.634 45.873,55.858 45.236,52.326 44.4,51.564 43.485,50.884 42.498,50.31 42.018,49.212 41.34,48.182 40.445,47.286L39.045,45.888C40.431,46.23 41.751,46.734 42.996,47.362 42.706,46.996 42.399,46.638 42.057,46.3L27.429,31.862C26.777,32.586,26.133,33.298,25.51,33.984z M4.389,23.366C4.052,23.63 3.724,23.912 3.412,24.22 3.327,24.304 3.255,24.394 3.174,24.48 3.273,24.382 3.364,24.28 3.467,24.186 3.747,23.932 4.061,23.654 4.389,23.366 M1.338,37.48C1.88,38.506,2.579,39.454,3.416,40.282L3.412,40.278C2.557,39.434,1.867,38.488,1.338,37.48"/></svg>
