<svg  xmlns="http://www.w3.org/2000/svg" width=" 70.8661" height=" 70.8661" viewBox="-0 -17.2844 70.8661 70.8661"><path d="M56.0259284973145,11.33964354411C56.5343322753906,11.3349020895548,56.9059982299805,11.8027497529984,56.9059982299805,12.5339992046356L56.9059982299805,17.0139994621277 69.447998046875,17.0139994621277C70.2279968261719,17.0139999389648 70.8659973144531,17.6499996185303 70.8659973144531,18.4260001182556 70.8659973144531,19.2019996643066 70.2279968261719,19.8379993438721 69.447998046875,19.8379993438721L56.9059982299805,19.8379993438721 56.9059982299805,24.318998336792C56.9059982299805,25.2189998626709,56.3429985046387,25.7199993133545,55.6549987792969,25.4310007095337L40.201000213623,18.9509992599487C39.5130004882813,18.6619997024536,39.5120010375977,18.1899995803833,40.201000213623,17.9019999504089L55.6549987792969,11.4209998473525C55.7840003967285,11.3669997490942,55.9086036682129,11.3407380303834,56.0259284973145,11.33964354411z M14.8400716781616,11.33964354411C14.9573945999146,11.3407380303834,15.0820007324219,11.3669997490942,15.2110004425049,11.4209998473525L30.6650009155273,17.9019999504089C31.3540000915527,18.1899995803833,31.3530006408691,18.6619997024536,30.6650009155273,18.9509992599487L15.2110004425049,25.4310007095337C14.5229997634888,25.7199993133545,13.960000038147,25.2189998626709,13.960000038147,24.318998336792L13.960000038147,19.8379993438721 1.41799974441528,19.8379993438721C0.638000011444092,19.8379993438721 0,19.2019996643066 0,18.4260001182556 0,17.6499996185303 0.638000011444092,17.0139999389648 1.41799974441528,17.0139994621277L13.960000038147,17.0139994621277 13.960000038147,12.5339992046356C13.960000038147,11.8027497529984,14.3316679000854,11.3349020895548,14.8400716781616,11.33964354411z M35.4329986572266,0C36.2120018005371,0,36.8499984741211,0.637999534606934,36.8499984741211,1.41800022125244L36.8499984741211,35.4339990615845C36.8499984741211,36.2130002975464 36.2120018005371,36.850998878479 35.4329986572266,36.850998878479 34.6529998779297,36.850998878479 34.015998840332,36.2130002975464 34.015998840332,35.4339990615845L34.015998840332,1.41800022125244C34.015998840332,0.637999534606934,34.6529998779297,0,35.4329986572266,0z" /></svg>
