<svg  xmlns="http://www.w3.org/2000/svg" width=" 70.8661" height=" 70.8661" viewBox="-0 -17.2844 70.8661 70.8661"><path d="M54.5254452499503,11.3396429772256C54.6427700790518,11.340737076709,54.7673733505362,11.3669987954199,54.8963749679679,11.4209990948439L70.3503735336417,17.9019985198975C71.0393765243643,18.189998626709,71.0383770736807,18.6619987487793,70.3503735336417,18.9509983062744L54.8963749679679,25.4309988021851C54.2083752426261,25.7199983596802,53.6453755172843,25.2189989089966,53.6453755172843,24.318998336792L53.6453755172843,19.8379993438721 41.1033757003897,19.8379993438721C40.3233769210929,19.8379983901978 39.6853764328116,19.2019987106323 39.6853764328116,18.4259991645813 39.6853764328116,17.649998664856 40.3233769210929,17.0139989852905 41.1033757003897,17.0139989852905L53.6453755172843,17.0139989852905 53.6453755172843,12.5339987277985C53.6453755172843,11.802748799324,54.0170414718741,11.3349011358805,54.5254452499503,11.3396429772256z M16.3413059982413,11.3396429772256C16.8497078689688,11.3349011358805,17.2213757309073,11.802748799324,17.2213757309073,12.5339987277985L17.2213757309073,17.0139989852905 29.7633755478018,17.0139989852905C30.5433743270987,17.0139989852905 31.18137481538,17.649998664856 31.18137481538,18.4259991645813 31.18137481538,19.2019987106323 30.5433743270987,19.8379983901978 29.7633755478018,19.8379993438721L17.2213757309073,19.8379993438721 17.2213757309073,24.318998336792C17.2213757309073,25.2189989089966,16.6583760055655,25.7199983596802,15.9703753265494,25.4309988021851L0.51637509194552,18.9509983062744C-0.171624946320662,18.6619987487793,-0.172624933446059,18.189998626709,0.51637509194552,17.9019985198975L15.9703753265494,11.4209990948439C16.0993759903067,11.3669987954199,16.2239811691397,11.340737076709,16.3413059982413,11.3396429772256z M35.4333737167472,0C36.2123768600577,-9.5367431640625E-07,36.8503735336417,0.637998580932617,36.8503735336417,1.41799926757813L36.8503735336417,35.4339981079102C36.8503735336417,36.2129993438721 36.2123768600577,36.8509979248047 35.4333737167472,36.8509979248047 34.6533749374503,36.8509979248047 34.0163738998526,36.2129993438721 34.0163738998526,35.4339981079102L34.0163738998526,1.41799926757813C34.0163738998526,0.637998580932617,34.6533749374503,-9.5367431640625E-07,35.4333737167472,0z"/></svg>
