<svg  xmlns="http://www.w3.org/2000/svg" width=" 70.8661" height=" 70.8661" viewBox="-2.5927 -2.5927 70.8661 70.8661"><path d="M32.598,27.496C33.377999,27.496,34.015,28.134001,34.015,28.913L34.015,40.252C34.015,41.031003 33.377999,41.669 32.598,41.669 31.817997,41.669 31.181,41.031003 31.181,40.252L31.181,28.913C31.181,28.134001,31.817997,27.496,32.598,27.496z M17.283999,23.811L32.595,50.305 47.903999,23.811z M12.372,20.977L52.816,20.977 32.595,55.969999z M5.4680004,20.361001C3.7810001,24.095001 2.8349991,28.235001 2.8349991,32.599 2.8349991,48.044001 14.6,60.739 29.657,62.216002z M59.725,20.353L35.532,62.217001C50.593,60.743002 62.362,48.047001 62.362,32.599 62.362,28.232001 61.414,24.089001 59.725,20.353z M7.4599991,18.142001L32.594,61.635 57.728001,18.142001z M32.598,2.835001C22.611,2.835001,13.778999,7.7590008,8.3799992,15.307001L56.816999,15.307001C51.418001,7.7590008,42.586,2.835001,32.598,2.835001z M32.598,0C50.602001,0 65.196999,14.595 65.196999,32.599 65.196999,50.602001 50.602001,65.197001 32.598,65.197001 14.594999,65.197001 0,50.602001 0,32.599 0,14.595 14.594999,0 32.598,0z"/></svg>
