<svg  xmlns="http://www.w3.org/2000/svg" width=" 70.8661" height=" 70.8661" viewBox="-17.2844 -0 70.8661 70.8661"><path d="M7.08700037002563,62.1500005722046L7.08700037002563,68.032000541687 29.7639999389648,68.0310001373291 29.7639999389648,62.1500005722046C26.67799949646,63.2309999465942 22.7799997329712,63.8660001754761 18.4259991645813,63.8659992218018 14.0709997862577,63.8660001754761 10.173999786377,63.2309999465942 7.08700037002563,62.1500005722046z M18.4259991645813,53.2910008194939C20.7739996910095,53.2910003662109 22.67799949646,54.179000377655 22.67799949646,55.2750004529953 22.67799949646,56.371000289917 20.7739996910095,57.2590003013611 18.4259991645813,57.2590000629425 16.077999830246,57.2590003013611 14.173999786377,56.371000289917 14.1740000891377,55.2750004529953 14.173999786377,54.179000377655 16.077999830246,53.2910003662109 18.4259991645813,53.2910008194939z M18.4259991645813,49.6940009593964C9.50299978256226,49.6940004825592 2.83500003814697,52.6860003471375 2.83500003814697,55.3619999885559 2.83500003814697,58.0390005111694 9.50299978256226,61.0310001373291 18.4259991645813,61.0310001373291 27.3489999771118,61.0310001373291 34.015998840332,58.0390005111694 34.015998840332,55.3619999885559 34.015998840332,52.6860003471375 27.3489999771118,49.6940004825592 18.4259991645813,49.6940009593964z M18.4259991645813,10.007999420166C9.50299978256226,10.007999420166,2.83500003814697,13.0009994506836,2.83500003814697,15.677001953125L2.83500003814697,50.7160007953644C6.04099941253662,48.3630003929138 11.6969997882843,46.8590002059937 18.4259991645813,46.8590002059937 25.1549997329712,46.8590002059937 30.8099994659424,48.3630003929138 34.015998840332,50.7160007953644L34.015998840332,15.677001953125C34.015998840332,13.0009994506836,27.3489999771118,10.007999420166,18.4259991645813,10.007999420166z M7.08700037002563,2.83499908447266L7.08700037002563,8.88999938964844C10.173999786377,7.80900192260742 14.0709997862577,7.17399978637695 18.4259991645813,7.17399978637695 22.7799997329712,7.17399978637695 26.67799949646,7.80900192260742 29.7639999389648,8.88999938964844L29.7639999389648,2.83499908447266z M7.08700037002563,0L29.7639999389648,0C31.3269996643066,0,32.5989990234375,1.27199935913086,32.5989990234375,2.83499908447266L32.5989990234375,10.128002166748C35.2709999084473,11.5970001220703,36.8509998321533,13.5170021057129,36.8509998321533,15.677001953125L36.8509998321533,55.3619999885559C36.8509998321533,57.5230002403259,35.2709999084473,59.4430003166199,32.5989990234375,60.9109997749329L32.5989990234375,68.032000541687C32.5989990234375,69.5950012207031,31.3269996643066,70.8660011291504,29.7639999389648,70.8660011291504L7.08700037002563,70.8660011291504C5.52400016784668,70.8660011291504,4.2519998550415,69.5950012207031,4.2519998550415,68.032000541687L4.2519998550415,60.9109997749329C1.57999992370605,59.4430003166199,0,57.5230002403259,0,55.3619999885559L0,15.677001953125C0,13.5170021057129,1.57999992370605,11.5970001220703,4.2519998550415,10.128002166748L4.2519998550415,2.83499908447266C4.2519998550415,1.27199935913086,5.52400016784668,0,7.08700037002563,0z"/></svg>
