<svg  xmlns="http://www.w3.org/2000/svg" width=" 70.8661" height=" 70.8661" viewBox="-2.5927 -2.5927 70.8661 70.8661"><path d="M20.509069793593,25.5121794208244C20.6263946226946,25.513397568604,20.7509998015276,25.5398116316646,20.8799995116106,25.5939991101623L36.333999984633,32.0739989280701C37.0219997099748,32.3629989624023,37.0229991606584,32.8349990844727,36.333999984633,33.1229996681213L20.8799995116106,39.6039991378784C20.1919997862688,39.8919992446899,19.629000060927,39.390998840332,19.629000060927,38.4899988174438L19.629000060927,34.0109987258911 1.4170002869478,34.0109987258911C0.637000375162671,34.0109987258911 3.50843976093529E-07,33.3749990463257 0,32.5989985466003 3.50843976093529E-07,31.8229990005493 0.637000375162671,31.1869993209839 1.4170002869478,31.186999797821L19.629000060927,31.186999797821 19.629000060927,26.7059993743896C19.629000060927,25.9747491180897,20.0006679228655,25.5069014728069,20.509069793593,25.5121794208244z M18.4240001372209,0L63.7789996794573,0C64.5589984587541,0,65.1959994963518,0.637998580932617,65.1959994963518,1.41699981689453L65.1959994963518,63.7800006866455C65.1959994963518,64.5590000152588,64.5589984587541,65.19700050354,63.7789996794573,65.19700050354L18.4240001372209,65.19700050354C17.6420005492082,65.1959972381592 17.00799977101,64.5619983673096 17.00799977101,63.7800006866455 17.00799977101,63.1869983673096 17.3729995421282,62.6799983978271 17.8899997404924,62.4689998626709 17.8920005492082,62.4680004119873 17.8929999998918,62.4659976959229 17.8939994505754,62.4649982452393 28.500000350844,58.6249980926514 44.5200008086076,52.7809982299805 45.6689990691057,52.3289985656738 46.2070010832659,52.0269985198975 46.7360004118791,51.2409992218018 46.7360004118791,50.1279983520508L46.7360004118791,15.0689992904663C46.7360004118791,13.9569988250732 46.2070010832659,13.1699991226196 45.6689990691057,12.8679990768433 44.5200008086076,12.4159994125366 28.500000350844,6.57199859619141 17.8939994505754,2.73199844360352 17.8929999998918,2.73099899291992 17.8920005492082,2.7289981842041 17.8899997404924,2.7289981842041 17.3729995421282,2.51699829101563 17.00799977101,2.01099967956543 17.00799977101,1.41699981689453 17.00799977101,0.634998321533203 17.6420005492082,0.00099945068359375 18.4240001372209,0z"/></svg>
