<svg  xmlns="http://www.w3.org/2000/svg" width=" 70.8661" height=" 70.8661" viewBox="-2.5927 -2.5927 70.8661 70.8661"><path d="M32.272484,12.62019C32.427906,12.599047,32.598999,12.704126,32.598999,12.901L32.598999,29.110001 42.001999,29.110001C42.200001,29.110001,42.337002,29.308001,42.268002,29.493L33.147999,52.394001C33.036999,52.689999,32.598999,52.610001,32.598999,52.294999L32.598999,36.088002 23.195999,36.088002C22.997999,36.088002,22.861,35.89,22.931,35.705002L32.049999,12.802C32.091625,12.691,32.179234,12.632875,32.272484,12.62019z M32.598999,2.8349999C16.160999,2.8350004 2.835,16.16 2.835,32.598 2.835,49.036 16.160999,62.362 32.598999,62.362 49.036999,62.362 62.362999,49.036 62.362999,32.598 62.362999,16.16 49.036999,2.8350004 32.598999,2.8349999z M32.598999,0C50.602001,3.6104029E-07 65.197998,14.595001 65.197998,32.598 65.197998,50.602002 50.602001,65.196999 32.598999,65.196999 14.596,65.196999 0,50.602002 0,32.598 0,14.595001 14.596,3.6104029E-07 32.598999,0z"/></svg>
