<svg  xmlns="http://www.w3.org/2000/svg" width=" 70.8661" height=" 70.8661" viewBox="-4.3211 -0 70.8661 70.8661"><path d="M34.0139995397388,30.7346963882446L29.7099986852466,32.6656966209412 29.7099986852466,37.862696647644 34.0139995397388,39.7926969528198z M2.88899977815734,28.3486971855164L2.88899977815734,42.5186958312988 25.4979987920581,42.5186958312988 25.4979987920581,28.3486971855164z M1.41799922597991,25.5136966295848L26.9689994634448,25.5136966295848C27.7520004094897,25.5136966705322,28.3859992803393,26.1476966738701,28.3859992803393,26.9306968450546L28.3859992803393,30.1516962051392 34.8520007909595,27.2526961565018C35.7890010656177,26.8336967229843,36.8489986242114,27.5196967124939,36.8489986242114,28.5466966629028L36.8489986242114,41.9816970825195C36.8489986242114,43.0096969604492,35.7890010656177,43.6956958770752,34.8520007909595,43.2746963500977L28.3859992803393,40.3756971359253 28.3859992803393,43.935697555542C28.3859992803393,44.7186965942383,27.7520004094897,45.3536968231201,26.9689994634448,45.3536968231201L1.41799922597991,45.3536968231201C0.634999591237175,45.3536968231201,-3.99226081526649E-07,44.7186965942383,1.98951966012828E-13,43.935697555542L1.98951966012828E-13,26.9306968450546C-3.99226081526649E-07,26.1476966738701,0.634999591237175,25.5136966705322,1.41799922597991,25.5136966295848z M60.9110828222095,0.00035858154296875C61.4136653722583,-0.0109710693359375 61.9065624059497,0.246196746826172 62.1739993871509,0.71369743347168 62.5629993261157,1.39069747924805 62.3279987157642,2.25869750976563 61.6479984105884,2.64769744873047L49.349998074895,9.68969631195068C53.2050014318286,17.621696472168,55.261001187688,26.4706966876984,55.2709995092212,35.4006967544556L55.2709995092212,35.4666967391968C55.261001187688,44.3966960906982,53.2050014318286,53.2446975708008,49.349998074895,61.1766948699951L61.6479984105884,68.2186985015869C62.3279987157642,68.6076984405518 62.5629993261157,69.4756984710693 62.1739993871509,70.1526966094971 61.784999448186,70.8326969146729 60.9189983190356,71.0676975250244 60.2400012792407,70.6786975860596L24.8939987005054,50.4376964569092C24.4360004247485,50.1756973266602 24.1799999059497,49.697696685791 24.1799999059497,49.205696105957 24.1799999059497,48.9666957855225 24.2409988225757,48.7246971130371 24.3679996312915,48.5036964416504 24.7569995702563,47.8236961364746 25.6229987920581,47.5886974334717 26.3019996465503,47.9776973724365L46.9049983800708,59.7766971588135C50.5200000585376,52.2746963500977,52.4269977392017,43.9036960601807,52.4360004247485,35.4666967391968L52.4360004247485,35.4006967544556C52.4269977392017,26.9636967182159,50.5200000585376,18.5926966667175,46.9049983800708,11.0906963348389L26.3019996465503,22.8896968364716C25.6229987920581,23.2786967754364 24.7569995702563,23.043696641922 24.3679996312915,22.363697052002 24.2409988225757,22.1416966915131 24.1799999059497,21.8996965885162 24.1799999059497,21.6606969833374 24.1799999059497,21.1696968078613 24.4360004247485,20.6916966438293 24.8939987005054,20.4296970367432L60.2400012792407,0.18769645690918C60.4521861852466,0.0661334991455078,60.6826358617602,0.0055084228515625,60.9110828222095,0.00035858154296875z"/></svg>
