<svg  xmlns="http://www.w3.org/2000/svg" width=" 70.8661" height=" 70.8661" viewBox="-2.5927 -0 70.8661 70.8661"><path d="M39.885,69.129L63.932,39.262C64.785,38.19 65.206,36.81 65.197,35.433 65.206,34.056 64.785,32.676 63.932,31.604L39.885,1.736C39.008,0.633 37.763,0 36.471,0 35.179,0 33.934,0.632 33.056,1.736 32.857,1.986 32.748,2.298 32.748,2.618L32.748,12.856 5.169,12.856C2.319,12.856,0,15.178,0,18.032L0,52.834C0,55.688,2.319,58.009,5.169,58.009L32.748,58.009 32.748,68.247C32.748,68.567 32.857,68.879 33.056,69.129 33.934,70.233 35.179,70.866 36.471,70.866 37.763,70.865 39.008,70.233 39.885,69.129"/></svg>
