<svg  xmlns="http://www.w3.org/2000/svg" width=" 70.8661" height=" 70.8661" viewBox="-2.5927 -2.5927 70.8661 70.8661"><path d="M32.598999,19.193001C25.554001,19.193001 19.843,24.903999 19.843,31.948999 19.843,38.993999 25.554001,44.705002 32.598999,44.705002 39.644001,44.705002 45.355,38.993999 45.355,31.948999 45.355,24.903999 39.644001,19.193001 32.598999,19.193001z M32.598999,16.358999C41.209,16.358999 48.189999,23.339 48.189999,31.948999 48.189999,40.558998 41.209,47.540001 32.598999,47.540001 23.989,47.540001 17.007999,40.558998 17.007999,31.948999 17.007999,23.339 23.989,16.358999 32.598999,16.358999z M25.091,3.5989995L20.077,5.4479997C21.118,9.437 19.157,12.174 17.681,13.587 16.125999,15.074 14.356,15.828 12.42,15.828 11.234,15.829 10.005,15.562999 8.6070004,14.991L5.8890004,19.684C8.6459999,21.767 9.809,24.396 9.3509998,27.527 8.9849997,30.033001 7.5879998,33.053001 3.276,34.437999L4.217,39.676998C4.4749999,39.657001 4.73,39.646999 4.9819999,39.646999 7.9039998,39.646999 10.287,41.012001 11.872,43.592998 13.008,45.443001 14.246,48.840999 11.626,52.742L15.734,56.201C17.462,54.514999 19.355,53.688999 21.468,53.688999 22.455999,53.688999 23.476,53.882999 24.500999,54.264999 26.764999,55.11 29.304001,56.971 29.847,61.063999L35.198002,61.063999C35.715,57.709999 37.494999,55.438999 40.512001,54.296001 41.537998,53.907001 42.564999,53.709999 43.564999,53.709999 45.678001,53.709999 47.598999,54.535 49.381001,56.219002L53.459,52.763C52.064999,50.655998 50.918999,47.533001 53.004002,43.970001 54.645,41.168998 57.151001,39.688999 60.252998,39.688999 60.494999,39.688999 60.738998,39.696998 60.987,39.715L61.905998,34.502998C58.009998,33.393001 56.509998,30.674 55.960999,28.357 55.146,24.913999 56.269001,22.017 59.300999,19.715999L56.605999,15.048C55.368,15.608 54.171001,15.883 52.991001,15.883 51.257,15.883 49.611,15.29 48.098,14.119 46.02,12.509 44.035,9.7629993 45.081001,5.3919995L40.084,3.6169996C38.966999,5.7529995 36.891998,8.1669996 32.955002,8.3399999 32.806999,8.3459995 32.659,8.3489997 32.515999,8.3489997 28.436001,8.3489997 26.275,5.8399999 25.091,3.5989995z M26.657,0C27.792999,3.2989998 29.344,5.6599996 32.831001,5.5069992 35.993,5.3689997 37.473999,3.2099998 38.464001,0.03399997 41.868999,1.2429998 45.152,2.4089997 48.709999,3.6729994 47.167,6.8859999 47.054001,9.7250001 49.834,11.877 52.317001,13.800999 54.832001,13.213999 57.625,11.146 59.480999,14.358 61.257999,17.437 63.127998,20.674999 59.902,22.312999 57.922001,24.332 58.720001,27.704 59.431999,30.715 61.685001,31.993 65.196999,32.160999 64.556,35.800998 63.937,39.312999 63.276001,43.058998 59.791,41.938999 57.146,42.507999 55.451,45.402 53.823002,48.181999 54.953999,50.535 57.410999,53.129001 54.646,55.472 51.952,57.755001 49.073002,60.194999 47.007,57.312999 44.653,55.757999 41.516998,56.945999 38.627998,58.041 37.745998,60.540001 37.889,63.898998L27.063,63.898998C27.358,60.618 26.552,58.056999 23.51,56.921001 20.434,55.772999 18.139,57.182998 16.096001,60.212002 13.115,57.701 10.443,55.451999 7.6149993,53.070999 10.283,50.567001 11.231,47.965999 9.4569998,45.076 7.835,42.435001 5.3130002,41.910999 1.9440002,43.049999 1.2869999,39.400001 0.65700001,35.895 0,32.240001 3.6159999,31.818001 6.0619998,30.424999 6.5469999,27.115999 6.9980001,24.031 5.0710001,22.148 2.05,20.656 3.9130001,17.441 5.6989999,14.356 7.4850006,11.274 11.359,13.487 13.615,13.554 15.721,11.538 17.968,9.3879993 18.110001,6.8729999 16.325001,3.8109996 19.822001,2.5209996 23.160999,1.2899997 26.657,0z" style="fill:#1a171b"/></svg>
