<svg  xmlns="http://www.w3.org/2000/svg" width=" 70.8661" height=" 70.8661" viewBox="-2.5927 -2.5927 70.8661 70.8661"><path d="M48.3839985508776,4.28488534298958C48.6290012974596,4.28488534298958 48.8759991307116,4.34788554516854 49.1020008702135,4.48088544217171 57.3790012974596,9.34988540021004 63.0299984593249,17.6518844923121 64.6839977879382,26.9448856672389L64.6959988255358,26.9448856672389C64.7839962620592,27.446884568606 64.859000839696,27.9528850874049 64.9250027317858,28.4618858656031 64.9260021824694,28.4678844770533 64.9260021824694,28.4738849958521 64.927001633153,28.479885514651L64.9260021824694,28.479885514651C65.0999981541491,29.8298858961207 65.1959988255358,31.2028850874049 65.1959988255358,32.5988849958521 65.1959988255358,40.539886887942 62.3919979710436,48.0028843244654 57.2519985813952,53.9198841413599L57.2589985508776,53.9268841108424 60.4280010838366,57.0958866438014C61.0670010228014,57.7348865827662,61.0250012059069,58.4888843855006,60.3339993138171,58.7708858808619L44.8040005345202,65.0968860944849C44.1129986424303,65.378883775149,43.7789990086413,65.0438846906764,44.060001053319,64.3518833479029L50.3860012669421,48.8238872846705C50.6679989476061,48.1318859418971,51.4220005650378,48.0898861250025,52.0610005040026,48.7288860639674L55.2449986119128,51.9128841718775C59.8530003208971,46.5358852705103 62.3619991917467,39.7808842023951 62.3619991917467,32.5988849958521 62.3619991917467,31.2008861860377 62.257999100194,29.8268856367213 62.0689999241686,28.479885514651L62.064998306737,28.479885514651C60.806998886571,19.5738853773219 55.5320011753893,11.5518850645167 47.6640011448717,6.92488568631234 46.9900013584948,6.52688544598641 46.7639996189928,5.65888541546883 47.1609989781237,4.98388522473397 47.4259983677721,4.53488534298958 47.898997940526,4.28488534298958 48.3839985508776,4.28488534298958z M20.8394219059801,0.000151316460687667C21.2119366307116,0.00807292183162645,21.3474995274401,0.326635416422505,21.1359993595934,0.844885643396992L14.8100000996447,16.3728851636988C14.5279995579577,17.0648845991236,13.7749992985583,17.1078857740504,13.1359993595934,16.4688858350855L9.95099989365104,13.2838854154688C6.5769998211718,17.2228855451685,4.33299986313347,21.9018844923121,3.37099996994499,26.9438862165553L3.38000003288749,26.9438862165553C3.11899963806633,28.3008846601588 2.94699970673088,29.68888514844 2.87399999092582,31.1028847059351 2.87299958656791,31.1248859724146 2.87099973152641,31.1458858808619 2.8699993271685,31.1668857893092 2.84699956367973,31.6418861707789 2.83499971817497,32.1188854536158 2.83499971817497,32.5988849958521 2.83499971817497,43.1028866132838 8.46599928329948,52.9408840498072 17.5319992680407,58.2728847822291 18.2059990544176,58.6698841413599 18.431998886571,59.5378841718775 18.0349995274401,60.2128872236353 17.7709995884753,60.6618847211939 17.2980000157214,60.9118847211939 16.8119999546862,60.9118847211939 16.568000473485,60.9118847211939 16.3209988255358,60.8488849958521 16.0949989933825,60.7158855756861 6.16699949692253,54.8768848737818 -3.1997200267142E-07,44.1028866132838 2.8421709430404E-14,32.5988849958521L2.8421709430404E-14,32.5978855451685C-3.1997200267142E-07,24.6568855604273,2.8049997467852,17.1938862165553,7.94399944733146,11.2768854459864L7.93699947784904,11.269885476504 4.76799980591301,8.10088580456795C4.12899986694816,7.46188538876595,4.17199961136345,6.70888560620369,4.86299959610466,6.42588513699593L20.3919998783923,0.0998855119687505C20.5647503514147,0.0293854231131263,20.7152496952868,-0.00248957675648853,20.8394219059801,0.000151316460687667z" style="fill:#1a171b"/></svg>
