<svg  xmlns="http://www.w3.org/2000/svg" width=" 70.8661" height=" 70.8661" viewBox="-2.5927 -2.5927 70.8661 70.8661"><path d="M26.882999420166,26.0330014990878C30.806999206543,26.0330014990878,34.0169982910156,29.2430005835605,34.0169982910156,33.1670003699375L34.0040016174316,51.0229993628574C34.0040016174316,51.8060003089023 33.3689994812012,52.4399991797519 32.5859985351563,52.4399991797519 31.80299949646,52.4399991797519 31.1679992675781,51.8060003089023 31.1679992675781,51.0229993628574L31.1630001068115,33.1670003699375C31.1630001068115,30.8069997595859,29.2430000305176,28.8869996832919,26.8819999694824,28.8869996832919L19.2889995574951,28.8750005530429C18.5069999694824,28.8740011023593 17.8719997406006,28.2400003241611 17.8719997406006,27.4570012854648 17.8719997406006,26.6749997901035 18.5069999694824,26.0410009192539 19.2889995574951,26.0400014685703z M32.5989990234375,12.7550006674838C34.9440002441406,12.7550006674838 36.851001739502,14.6630006598544 36.851001739502,17.0070005225253 36.851001739502,19.3519998358798 34.9440002441406,21.2590013312412 32.5989990234375,21.2590013312412 30.253999710083,21.2590013312412 28.3470001220703,19.3519998358798 28.3470001220703,17.0070005225253 28.3470001220703,14.6630006598544 30.253999710083,12.7550006674838 32.5989990234375,12.7550006674838z M32.5989990234375,2.83500011435274C16.1609992980957,2.8350005911899 2.83500003814697,16.160000400455 2.83500027656555,32.5980001257968 2.83500003814697,49.0359998511386 16.1609992980957,62.3620000647617 32.5989990234375,62.3620000647617 49.0369987487793,62.3620000647617 62.3629989624023,49.0359998511386 62.3629989624023,32.5980001257968 62.3629989624023,16.160000400455 49.0369987487793,2.8350005911899 32.5989990234375,2.83500011435274z M32.5989990234375,0C50.6020011901855,5.53042923456815E-07 65.1969985961914,14.5940004157138 65.1969985961914,32.5980001257968 65.1969985961914,50.6020017432285 50.6020011901855,65.1959996985507 32.5989990234375,65.1959996985507 14.5950002670288,65.1959996985507 0,50.6020017432285 0,32.5980001257968 0,14.5940004157138 14.5950002670288,5.53042923456815E-07 32.5989990234375,0z" style="fill:#1a171b"/></svg>
