<svg  xmlns="http://www.w3.org/2000/svg" width=" 70.8661" height=" 70.8661" viewBox="-6.0495 -.8642 70.8661 70.8661"><path d="M51.82200050354,20.3640003204346L52.3939990997314,20.3640003204346C56.3179988861084,20.3640003204346,59.5279979705811,23.5739994049072,59.5279979705811,27.4979991912842L59.5159969329834,42.8120002746582C59.5059986114502,43.5870018005371 58.875997543335,44.2130012512207 58.1000003814697,44.2130012512207 57.3239994049072,44.2130012512207 56.693998336792,43.5870018005371 56.685998916626,42.8120002746582L56.6739978790283,27.4990005493164C56.6739978790283,25.1380004882813,54.753999710083,23.2180004119873,52.3939990997314,23.2180004119873L51.8239994049072,23.2180004119873C49.4619998931885,23.2180004119873,47.5419979095459,25.1380004882813,47.5419979095459,27.4990005493164L47.5319995880127,66.6149978637695C47.5319995880127,67.3970031738281 46.8959980010986,68.0319976806641 46.1140003204346,68.0319976806641 45.3319988250732,68.0319976806641 44.6959972381592,67.3970031738281 44.6959972381592,66.6149978637695L44.6889972686768,27.4979991912842C44.6889972686768,23.5739994049072,47.8999996185303,20.3640003204346,51.82200050354,20.3640003204346z M29.1459980010986,20.3640003204346L29.7169990539551,20.3640003204346C33.6399993896484,20.3640003204346,36.8509979248047,23.5739994049072,36.8509979248047,27.4979991912842L36.8379993438721,42.8120002746582C36.8289985656738,43.5870018005371 36.1999988555908,44.2130012512207 35.4229984283447,44.2130012512207 34.6459980010986,44.2130012512207 34.0169982910156,43.5870018005371 34.007999420166,42.8120002746582L33.9969997406006,27.4990005493164C33.9969997406006,25.1380004882813,32.0769996643066,23.2180004119873,29.7169990539551,23.2180004119873L29.1459980010986,23.2180004119873C26.7859983444214,23.2180004119873,24.8649988174438,25.1380004882813,24.8649988174438,27.4990005493164L24.8549995422363,66.6149978637695C24.854998588562,67.3970031738281 24.2199983596802,68.0319976806641 23.4369974136353,68.0319976806641 22.653998374939,68.0319976806641 22.0189990997314,67.3970031738281 22.0189990997314,66.6149978637695L22.011999130249,27.4979991912842C22.011999130249,23.5739994049072,25.221999168396,20.3640003204346,29.1459980010986,20.3640003204346z M7.13399934768677,20.3640003204346L7.70499849319458,20.3640003204346C11.628998786211,20.3640003204346,14.8389987945557,23.5739994049072,14.8389995098114,27.4979991912842L14.831999540329,66.6149978637695C14.8319988250732,67.3970031738281 14.19699883461,68.0319976806641 13.4139995574951,68.0319976806641 12.6309988498688,68.0319976806641 11.9959987998009,67.3970031738281 11.9959995746613,66.6149978637695L11.9859998822212,27.4990005493164C11.9859988093376,25.1380004882813,10.0649987459183,23.2180004119873,7.70499849319458,23.2180004119873L7.13399934768677,23.2180004119873C4.77399873733521,23.2180004119873,2.85399913787842,25.1380004882813,2.85399913787842,27.4979991912842L2.84299850463867,42.8120002746582C2.83399868011475,43.5870018005371 2.20499897003174,44.2130012512207 1.42799854278564,44.2130012512207 0.650999069213867,44.2130012512207 0.021998405456543,43.5870018005371 0.0129985809326172,42.8120002746582L0,27.4979991912842C-9.5367431640625E-07,23.5739994049072,3.21099853515625,20.3640003204346,7.13399934768677,20.3640003204346z M41.1019992828369,0C45.0109996795654,0 48.1889972686768,3.17899990081787 48.1889972686768,7.08700037002563 48.1889972686768,10.9949998855591 45.0109996795654,14.1730003356934 41.1019992828369,14.1730003356934 37.193998336792,14.1730003356934 34.015998840332,10.9949998855591 34.015998840332,7.08700037002563 34.015998840332,3.17899990081787 37.193998336792,0 41.1019992828369,0z M18.4259991645813,0C22.3339986801147,0 25.511999130249,3.17899990081787 25.511999130249,7.08700037002563 25.511999130249,10.9949998855591 22.3339986801147,14.1730003356934 18.4259991645813,14.1730003356934 14.5169987678528,14.1730003356934 11.3389987945557,10.9949998855591 11.3389996668384,7.08700037002563 11.3389987945557,3.17899990081787 14.5169987678528,0 18.4259991645813,0z" style="fill:#1a171b"/></svg>
