<svg  xmlns="http://www.w3.org/2000/svg" width=" 70.8661" height=" 70.8661" viewBox="-2.5927 -2.5927 70.8661 70.8661"><path d="M26.2929992675781,33.8629989624023L31.3349990844727,38.9059982299805 21.367000579834,48.8740005493164C20.4529991149902,49.7879981994629,19.0370006561279,49.8499984741211,18.2019996643066,49.0130004882813L16.1840000152588,46.9970016479492C15.3489999771118,46.1609992980957,15.41100025177,44.7449989318848,16.3239994049072,43.8320007324219z M21.2748756408691,15.6300001144409C22.2759990692139,15.6067504882813 23.2959995269775,15.8425006866455 24.2339992523193,16.367000579834 26.6429996490479,17.7159996032715 27.7119998931885,20.5240001678467 26.9680004119873,23.0639991760254 27.0869998931885,23.3969993591309 27.2770004272461,23.7089996337891 27.5410003662109,23.9769992828369L41.2350006103516,37.6759986877441C41.4790000915527,37.9199981689453 41.7610015869141,38.101001739502 42.0620002746582,38.2229995727539 43.5359992980957,37.7610015869141 45.1879997253418,37.8779983520508 46.6399993896484,38.6920013427734 48.5169982910156,39.7410011291504 49.5779991149902,41.6769981384277 49.6069984436035,43.681999206543L44.8610000610352,41.0229988098145C44.2599983215332,40.6870002746582,43.5009994506836,40.9010009765625,43.1640014648438,41.5019989013672L41.5429992675781,44.3969993591309C41.2070007324219,44.9990005493164,41.4220008850098,45.7560005187988,42.0219993591309,46.0919990539551L46.7690010070801,48.7519989013672C45.0449981689453,49.773998260498 42.8390007019043,49.8800010681152 40.9640007019043,48.8300018310547 38.5540008544922,47.4809989929199 37.484001159668,44.6730003356934 38.2299995422363,42.1319999694824 38.1110000610352,41.8009986877441 37.9230003356934,41.4889984130859 37.6559982299805,41.2190017700195L23.9629993438721,27.5230007171631C23.7180004119873,27.2749996185303 23.4360008239746,27.0960006713867 23.1350002288818,26.9729995727539 21.6630001068115,27.4349994659424 20.0100002288818,27.3199996948242 18.556999206543,26.5060005187988 16.6800003051758,25.4570007324219 15.6199998855591,23.5209999084473 15.5920000076294,21.5149993896484L20.3379993438721,24.173999786377C20.9379997253418,24.5109996795654,21.6979999542236,24.2959995269775,22.0330009460449,23.6959991455078L23.6539993286133,20.7999992370605C23.9899997711182,20.1989994049072,23.7779998779297,19.443000793457,23.1760005950928,19.1049995422363L18.4290008544922,16.44700050354C19.2915000915527,15.9355001449585,20.2737503051758,15.6532497406006,21.2748756408691,15.6300001144409z M47.5839996337891,15.5959997177124L49.6020011901855,17.6140003204346 48.2249984741211,21.007999420166 45.9980010986328,21.9109992980957 37.7389984130859,30.1700000762939 35.0670013427734,27.4969997406006 43.2360000610352,19.3279991149902 44.1910018920898,16.9740009307861z M32.5989990234375,2.83500027656555C16.1870002746582,2.83500003814697 2.83500003814697,16.1870002746582 2.83500027656555,32.5989990234375 2.83500003814697,49.0099983215332 16.1870002746582,62.3619995117188 32.5989990234375,62.3619995117188 49.0110015869141,62.3619995117188 62.3629989624023,49.0099983215332 62.3629989624023,32.5989990234375 62.3629989624023,16.1870002746582 49.0110015869141,2.83500003814697 32.5989990234375,2.83500027656555z M32.5989990234375,0C50.6020011901855,0 65.1969985961914,14.5950002670288 65.1969985961914,32.5989990234375 65.1969985961914,50.6020011901855 50.6020011901855,65.1969985961914 32.5989990234375,65.1969985961914 14.5959997177124,65.1969985961914 0,50.6020011901855 0,32.5989990234375 0,14.5950002670288 14.5959997177124,0 32.5989990234375,0z" style="fill:#1a171b"/></svg>
