<svg  xmlns="http://www.w3.org/2000/svg" width=" 70.8661" height=" 70.8661" viewBox="-.8642 -5.1853 70.8661 70.8661"><path d="M58.489,12.393C52.33,6.229 44.142,2.834 35.433,2.834 26.743,2.834 18.574,6.214 12.421,12.351 12.525,12.209 12.482,11.984 12.405,11.662L10.447,0.539C10.169,-0.145,9.423,-0.184,8.786,0.453L0.453,8.786C-0.184,9.422,-0.145,10.169,0.54,10.446L11.662,12.403C12.005,12.479 12.208,12.523 12.35,12.421 6.209,18.581 2.827,26.765 2.827,35.469 2.827,44.185 6.218,52.381 12.377,58.544 12.654,58.821 13.016,58.96 13.38,58.96 13.742,58.96 14.105,58.821 14.382,58.544 14.935,57.99 14.935,57.092 14.382,56.538 12.86,55.015 11.531,53.352 10.39,51.585L13.053,50.046C13.732,49.654 13.964,48.786 13.573,48.108 13.181,47.429 12.316,47.197 11.636,47.588L8.968,49.13C7.024,45.369,5.899,41.217,5.697,36.895L8.773,36.895C9.556,36.895 10.191,36.259 10.191,35.476 10.191,34.692 9.556,34.057 8.773,34.057L5.696,34.057C5.896,29.734,7.019,25.581,8.962,21.818L11.636,23.364C12.314,23.755 13.181,23.523 13.573,22.844 13.964,22.165 13.732,21.298 13.053,20.906L10.383,19.363C11.175,18.134,12.065,16.961,13.04,15.845L31.386,34.191C31.265,34.586 31.181,34.997 31.181,35.433 31.181,37.781 33.085,39.685 35.433,39.685 37.781,39.685 39.685,37.781 39.685,35.433 39.685,33.084 37.781,31.181 35.433,31.181 34.998,31.181 34.587,31.265 34.193,31.386L15.846,13.039C16.952,12.072,18.115,11.189,19.332,10.403L20.875,13.078C21.266,13.756 22.133,13.989 22.812,13.597 23.49,13.205 23.722,12.338 23.331,11.659L21.785,8.979C25.544,7.033,29.694,5.908,34.014,5.706L34.014,8.794C34.014,9.577 34.65,10.213 35.432,10.213 36.215,10.213 36.85,9.577 36.85,8.794L36.85,5.706C41.171,5.908,45.321,7.033,49.08,8.978L47.534,11.659C47.143,12.337 47.375,13.205 48.053,13.597 48.731,13.989 49.599,13.756 49.99,13.077L51.533,10.402C53.3,11.544 54.962,12.875 56.484,14.399 58.021,15.937 59.348,17.606 60.478,19.366L57.812,20.906C57.133,21.298 56.901,22.166 57.292,22.844 57.683,23.523 58.549,23.755 59.229,23.364L61.896,21.823C63.868,25.662,64.958,29.841,65.156,34.057L62.092,34.057C61.309,34.057 60.674,34.692 60.674,35.476 60.674,36.259 61.309,36.895 62.092,36.895L65.156,36.895C64.956,41.11,63.864,45.289,61.89,49.126L59.229,47.588C58.551,47.196 57.684,47.429 57.292,48.108 56.901,48.786 57.133,49.654 57.812,50.046L60.47,51.582C59.343,53.338 58.017,55.003 56.484,56.538 55.93,57.092 55.93,57.99 56.484,58.544 57.037,59.098 57.936,59.098 58.489,58.544 71.202,45.82 71.202,25.117 58.489,12.393" /></svg>
