<svg  xmlns="http://www.w3.org/2000/svg" width=" 70.8661" height=" 70.8661" viewBox="-2.5927 -2.5927 70.8661 70.8661"><path d="M42.02,46.092L46.768,48.752C45.044,49.774 42.838,49.88 40.962,48.83 38.554,47.481 37.482,44.673 38.228,42.132 38.11,41.8 37.92,41.488 37.654,41.219L23.962,27.523C23.716,27.275 23.434,27.096 23.134,26.973 21.662,27.435 20.01,27.32 18.556,26.506 16.678,25.457 15.62,23.521 15.59,21.515L20.336,24.174C20.936,24.51,21.696,24.296,22.032,23.696L23.652,20.8C23.99,20.199,23.776,19.443,23.174,19.105L18.428,16.446C20.152,15.424 22.356,15.318 24.232,16.367 26.642,17.716 27.71,20.524 26.968,23.064 27.086,23.397 27.276,23.709 27.54,23.977L41.234,37.675C41.478,37.92 41.76,38.101 42.062,38.223 43.534,37.761 45.186,37.878 46.638,38.692 48.516,39.741 49.578,41.677 49.606,43.682L44.86,41.023C44.26,40.687,43.5,40.901,43.164,41.502L41.542,44.397C41.206,44.999,41.42,45.756,42.02,46.092 M21.366,48.874C20.452,49.788,19.036,49.85,18.2,49.013L16.183,46.997C15.348,46.161,15.41,44.745,16.323,43.832L26.292,33.863 31.334,38.906z M43.236,19.328L44.19,16.973 47.584,15.595 49.602,17.613 48.224,21.008 45.998,21.91 37.738,30.17 35.066,27.497z M32.598,0C14.594,0 -0.001,14.595 -0.001,32.599 -0.001,50.602 14.594,65.197 32.598,65.197 50.602,65.197 65.196,50.602 65.196,32.599 65.196,14.595 50.602,0 32.598,0" style="fill:#008ccd"/></svg>
