<svg  xmlns="http://www.w3.org/2000/svg" width=" 70.8661" height=" 70.8661" viewBox="-2.5927 -2.5927 70.8661 70.8661"><path d="M32.5989986658096,23.5280005837178C33.3779993057251,23.5279998779297,34.0159993171692,24.1659998893738,34.015998840332,24.9449999332428L34.015998840332,36.2839994430542C34.0159993171692,37.0629997253418 33.3779993057251,37.701000213623 32.5989986658096,37.701000213623 31.8189992308617,37.701000213623 31.181999206543,37.0629997253418 31.1819993639112,36.2839994430542L31.1819993639112,24.9449999332428C31.181999206543,24.1659998893738,31.8189992308617,23.5279998779297,32.5989986658096,23.5280005837178z M32.602999329567,9.22799968719482L12.3809986114502,44.2210006713867 52.8259983062744,44.2210006713867z M32.602999329567,3.5620002746582L57.7379989624023,47.0559997558594 7.4689998626709,47.0559997558594z M32.5989996194839,2.83499908447266C16.1869993209839,2.83499908447266 2.83499908447266,16.186999797821 2.83499908447266,32.5989999771118 2.83499908447266,49.0100002288818 16.1869993209839,62.3619995117188 32.5989996194839,62.3619995117188 49.0109996795654,62.3619995117188 62.3629989624023,49.0100002288818 62.3629989624023,32.5989999771118 62.3629989624023,16.186999797821 49.0109996795654,2.83499908447266 32.5989996194839,2.83499908447266z M32.5989996194839,0C50.6019992828369,0 65.1969985961914,14.5950002670288 65.1969985961914,32.5989999771118 65.1969985961914,50.6019992828369 50.6019992828369,65.1969985961914 32.5989996194839,65.1969985961914 14.5959987640381,65.1969985961914 0,50.6019992828369 0,32.5989999771118 0,14.5950002670288 14.5959987640381,0 32.5989996194839,0z" style="fill:#e5e8e4"/></svg>
