<svg  xmlns="http://www.w3.org/2000/svg" width=" 70.8661" height=" 70.8661" viewBox="-2.5927 -2.5927 70.8661 70.8661"><path d="M32.5989999771118,23.5279998779297C31.8199987411499,23.5279998779297,31.1820001602173,24.1659994125366,31.1820001602173,24.9449996948242L31.1820001602173,36.2839994430542C31.1820001602173,37.0629987716675 31.8189992904663,37.7009992599487 32.5989999771118,37.7009992599487 33.3779993057251,37.7009992599487 34.0159997940063,37.0629987716675 34.0159997940063,36.2839994430542L34.0159997940063,24.9449996948242C34.0159997940063,24.1659994125366,33.3779993057251,23.5279998779297,32.5989999771118,23.5279998779297z M32.6029996871948,9.22799950877582L52.8259992599487,44.2209997177124 12.3809996899342,44.2209997177124z M32.6029996871948,3.56199932098389L7.46899890899658,47.0559988021851 57.737998008728,47.0559988021851z M32.5989999771118,0C50.6029996871948,0 65.1980009078979,14.5949997901917 65.1970014572144,32.5989999771118 65.1970014572144,50.6020002365112 50.6029996871948,65.1970014572144 32.5989999771118,65.1970014572144 14.5949995517731,65.1970014572144 0,50.6020002365112 0,32.5989999771118 0,14.5949997901917 14.5959994792938,0 32.5989999771118,0z" style="fill:#e2001a"/></svg>
