<svg  xmlns="http://www.w3.org/2000/svg" width=" 70.8661" height=" 70.8661" viewBox="-2.5927 -2.5927 70.8661 70.8661"><path d="M32.599,52.441C30.254,52.441 28.347,50.534 28.347,48.189 28.347,45.845 30.254,43.937 32.599,43.937 34.944,43.937 36.851,45.845 36.851,48.189 36.851,50.534 34.944,52.441 32.599,52.441 M30.615,14.74C30.615,13.645 31.503,12.756 32.599,12.756 33.695,12.756 34.583,13.645 34.583,14.74L34.583,36.851C34.583,37.946 33.695,38.835 32.599,38.835 31.503,38.835 30.615,37.946 30.615,36.851z M32.599,0C14.596,0 0,14.595 0,32.599 0,50.602 14.596,65.197 32.599,65.197 50.602,65.197 65.197,50.602 65.197,32.599 65.197,14.595 50.602,0 32.599,0" style="fill:#ffdd00"/></svg>
