<svg  xmlns="http://www.w3.org/2000/svg" width=" 70.8661" height=" 70.8661" viewBox="-2.5927 -2.5927 70.8661 70.8661"><path d="M32.418999,19.156L38.374001,35.459 26.570999,35.459z M32.469002,15.591001C31.736,15.591001 31.124001,15.726 30.652001,15.994001 30.16,16.272 29.776001,16.624001 29.477001,17.07 29.145001,17.565001 28.823,18.208 28.520001,18.979L19.568001,41.723999C19.247,42.520001 19.015,43.142002 18.875,43.589001 18.757,43.966999 18.696001,44.337002 18.696001,44.687 18.696001,45.209999 18.917,45.676003 19.373001,46.110001 19.841,46.556 20.359001,46.772 20.955,46.772 21.977001,46.772 22.266001,46.39 22.360001,46.264 22.614001,45.928002 23.062001,45.133999 23.762001,43.256001L25.476,38.656002 39.501999,38.656002 41.209999,43.143002C41.41,43.629002 41.650002,44.190003 41.927002,44.827 42.240002,45.541001 42.471001,45.901001 42.610001,46.076 42.779999,46.292 42.987999,46.459999 43.244999,46.588001 43.487999,46.709999 43.803002,46.772 44.178002,46.772 44.825001,46.772 45.362,46.549 45.820999,46.091 46.279,45.633 46.501999,45.159001 46.501999,44.644001 46.501999,44.234001 46.344002,43.366001 45.587002,41.552002 45.587002,41.552002 36.585999,19.233 36.337002,18.624001 36.108002,18.07 35.823002,17.541001 35.487999,17.056 35.192002,16.627001 34.795002,16.270001 34.307999,15.994001 33.835999,15.726 33.216999,15.591001 32.469002,15.591001z M32.598999,5.6700003C47.472,5.6700003 59.528,17.726 59.528,32.598999 59.528,38.159001 57.841999,43.324001 54.956002,47.614002L54.066002,46.725002C53.239002,45.897 52.199002,45.441002 51.138001,45.441002 49.637001,45.441002 48.343003,46.327999 47.763001,47.755001L43.997002,56.998001C40.535,58.618 36.674,59.528 32.598999,59.528 17.727001,59.528 5.6700003,47.472 5.6700003,32.598999 5.6700003,17.726 17.727001,5.6700003 32.598999,5.6700003z M32.598999,0C50.573998,1.8450022E-07 65.196999,14.623996 65.196999,32.598992 65.196999,40.539993 62.393002,48.002987 57.252999,53.919987L57.259999,53.926987 60.428997,57.095989C61.067997,57.734989,61.025997,58.487988,60.334999,58.770989L44.806,65.096985C44.113999,65.378983,43.779,65.043984,44.060997,64.351982L50.386997,48.823986C50.668999,48.131989,51.422997,48.088989,52.061997,48.728989L55.245999,51.912987C59.854,46.535988 62.362995,39.779991 62.362995,32.598992 62.362995,16.186995 49.009999,2.8349993 32.598999,2.8349993 16.187001,2.8349993 2.835,16.186995 2.8350003,32.598992 2.835,43.102989 8.4670002,52.940987 17.532,58.272988 18.207001,58.669987 18.431999,59.538983 18.035,60.213986 17.771,60.661984 17.298001,60.911984 16.812001,60.911984 16.568001,60.911984 16.320999,60.848984 16.095,60.716984 6.1680005,54.876988 0,44.102989 0,32.598992 0,14.623996 14.624001,1.8450022E-07 32.598999,0z" /></svg>
