<svg  xmlns="http://www.w3.org/2000/svg" width=" 70.8661" height=" 70.8661" viewBox="-0 -22.4697 70.8661 70.8661"><path d="M58.11,19.133C54.593,19.133 51.732,16.272 51.732,12.755 51.732,9.238 54.593,6.377 58.11,6.377 61.627,6.377 64.488,9.238 64.488,12.755 64.488,16.272 61.627,19.133 58.11,19.133 M12.756,19.133C9.239,19.133 6.378,16.272 6.378,12.755 6.378,9.238 9.239,6.377 12.756,6.377 16.272,6.377 19.133,9.238 19.133,12.755 19.133,16.272 16.272,19.133 12.756,19.133 M58.289,0L12.576,0C5.641,0 0,5.722 0,12.755 0,19.789 5.641,25.511 12.576,25.511L58.289,25.511C65.224,25.511 70.866,19.789 70.866,12.755 70.866,5.722 65.224,0 58.289,0"/></svg>
