<svg  xmlns="http://www.w3.org/2000/svg" width=" 70.8661" height=" 70.8661" viewBox="-2.5927 -2.5927 70.8661 70.8661"><path d="M32.5989988807423,28.3470001220703C30.2509993079884,28.3470001220703 28.3469999793751,30.2509994506836 28.3469999793751,32.5989990234375 28.3469999793751,34.9469985961914 30.2509993079884,36.851001739502 32.5989988807423,36.851001739502 34.9469984534962,36.851001739502 36.8510015968068,34.9469985961914 36.8510015968068,32.5989990234375 36.8510015968068,30.2509994506836 34.9469984534962,28.3470001220703 32.5989988807423,28.3470001220703z M32.5989988807423,5.66999959945679C47.4719999793751,5.67000007629395 59.5279997352345,17.7259998321533 59.5279997352345,32.5989990234375 59.5279997352345,38.1590003967285 57.8429983619435,43.3240013122559 54.9560011390431,47.6139984130859L54.0660017493947,46.7239990234375C53.2389982703908,45.8969993591309 52.1990011695607,45.4410018920898 51.1380003455861,45.4410018920898 49.6370008949025,45.4410018920898 48.3429983619435,46.3279991149902 47.7620008949025,47.7550010681152L43.997001505254,56.9980010986328C40.5349997047169,58.6180000305176 36.6739996436818,59.5279998779297 32.5989988807423,59.5279998779297 17.7259996894581,59.5279998779297 5.66999993359877,47.4720001220703 5.66999993359877,32.5989990234375 5.66999993359877,17.7259998321533 17.7259996894581,5.67000007629395 32.5989988807423,5.66999959945679z M32.5989988807423,0C50.5740011695607,0 65.1969984534962,14.6239995956421 65.1969984534962,32.5989990234375 65.1969984534962,40.5400009155273 62.3930014137013,48.0029983520508 57.2529982093556,53.9199981689453L57.259998178838,53.9269981384277 60.429000711797,57.0960006713867C61.0680006507619,57.7350006103516,61.0260008338673,58.4889984130859,60.3349989417775,58.7709999084473L44.8050001624806,65.0970001220703C44.1139982703908,65.3789978027344,43.7799986366017,65.0439987182617,44.0610006812794,64.3519973754883L50.3870008949025,48.8240013122559C50.6689985755665,48.1319999694824,51.4230001929982,48.0900001525879,52.062000131963,48.7290000915527L55.2459982398732,51.9129981994629C59.8539999488576,46.5359992980957 62.3629988197072,39.7809982299805 62.3629988197072,32.5989990234375 62.3629988197072,16.1870002746582 49.009998178838,2.83500003814697 32.5989988807423,2.83499979972839 16.187000131963,2.83500003814697 2.8349998954518,16.1870002746582 2.8349998954518,32.5989990234375 2.8349998954518,43.1030006408691 8.46699986493422,52.9410018920898 17.5319994453175,58.2729988098145 18.2070005897267,58.6699981689453 18.4319990638478,59.5390014648438 18.0349997047169,60.2140007019043 17.7709997657521,60.6619987487793 17.2980001929982,60.9119987487793 16.812000131963,60.9119987487793 16.5680006507619,60.9119987487793 16.3209990028126,60.8489990234375 16.0949991706593,60.7169990539551 6.16800007855727,54.8769989013672 -1.42695171234664E-07,44.1030006408691 0,32.5989990234375 -1.42695171234664E-07,14.6239995956421 14.6239994529469,0 32.5989988807423,0z" /></svg>
