<svg  xmlns="http://www.w3.org/2000/svg" width=" 70.8661" height=" 70.8661" viewBox="-2.5927 -2.5927 70.8661 70.8661"><path d="M32.599,21.26C30.254,21.26 28.347,19.352 28.347,17.008 28.347,14.663 30.254,12.756 32.599,12.756 34.944,12.756 36.851,14.663 36.851,17.008 36.851,19.352 34.944,21.26 32.599,21.26 M34.003,51.023C34.003,51.806 33.369,52.441 32.586,52.441 31.803,52.441 31.168,51.806 31.168,51.023L31.162,33.167C31.162,30.807,29.242,28.887,26.882,28.887L19.288,28.874C18.506,28.874 17.872,28.239 17.872,27.457 17.872,26.675 18.506,26.041 19.288,26.04L26.882,26.033C30.806,26.033,34.016,29.243,34.016,33.167z M32.599,0C14.596,0 0,14.595 0,32.598 0,50.602 14.596,65.197 32.599,65.197 50.602,65.197 65.197,50.602 65.197,32.598 65.197,14.595 50.602,0 32.599,0"/></svg>
