<svg  xmlns="http://www.w3.org/2000/svg" width=" 70.8661" height=" 70.8661" viewBox="-2.5927 -2.5927 70.8661 70.8661"><path d="M51.732,20.93L41.819,29.411 41.819,36.815C41.819,37.597 41.183,38.232 40.398,38.232 39.613,38.232 38.976,37.597 38.976,36.815L38.976,28.109 48.889,19.627 48.889,11.303C48.889,10.52 49.525,9.886 50.31,9.886 51.095,9.886 51.732,10.52 51.732,11.303z M45.354,59.493C43.788,59.493 42.519,58.223 42.519,56.657 42.519,55.091 43.788,53.822 45.354,53.822 46.92,53.822 48.19,55.091 48.19,56.657 48.19,58.223 46.92,59.493 45.354,59.493 M38.976,50.28C37.41,50.28 36.141,49.011 36.141,47.445 36.141,45.879 37.41,44.609 38.976,44.609 40.542,44.609 41.812,45.879 41.812,47.445 41.812,49.011 40.542,50.28 38.976,50.28 M32.598,41.067C31.032,41.067 29.763,39.798 29.763,38.232 29.763,36.666 31.032,35.397 32.598,35.397 34.164,35.397 35.434,36.666 35.434,38.232 35.434,39.798 34.164,41.067 32.598,41.067 M32.598,59.493C31.032,59.493 29.763,58.223 29.763,56.657 29.763,55.091 31.032,53.822 32.598,53.822 34.164,53.822 35.434,55.091 35.434,56.657 35.434,58.223 34.164,59.493 32.598,59.493 M26.22,50.28C24.654,50.28 23.385,49.011 23.385,47.445 23.385,45.879 24.654,44.609 26.22,44.609 27.786,44.609 29.056,45.879 29.056,47.445 29.056,49.011 27.786,50.28 26.22,50.28 M13.464,20.93L13.464,11.303C13.464,10.52 14.101,9.886 14.886,9.886 15.671,9.886 16.308,10.52 16.308,11.303L16.308,19.627 26.22,28.109 26.22,36.815C26.22,37.597 25.584,38.232 24.798,38.232 24.013,38.232 23.377,37.597 23.377,36.815L23.377,29.411z M19.842,59.493C18.276,59.493 17.007,58.223 17.007,56.657 17.007,55.091 18.276,53.822 19.842,53.822 21.408,53.822 22.678,55.091 22.678,56.657 22.678,58.223 21.408,59.493 19.842,59.493 M34.01,0L34.01,12.507 38.491,12.507C39.391,12.507,39.892,13.07,39.603,13.758L33.123,29.212C32.834,29.9,32.362,29.901,32.074,29.212L25.593,13.758C25.305,13.07,25.806,12.507,26.706,12.507L31.187,12.507 31.187,0C13.838,0.74 0,15.033 0,32.563 0,50.566 14.595,65.161 32.598,65.161 50.602,65.161 65.196,50.566 65.196,32.563 65.196,15.033 51.358,0.74 34.01,0"/></svg>
