<svg  xmlns="http://www.w3.org/2000/svg" width=" 70.8661" height=" 70.8661" viewBox="-2.5927 -2.5927 70.8661 70.8661"><path d="M0,33.9809986586915L32.5620002746582,33.9809986586915C32.3730010986328,33.9809986586915,32.1829986572266,34.1529995437013,32.0379981994629,34.4980007644044L25.5590000152588,49.9509998793947C25.2689990997314,50.6389996047365,25.7709999084473,51.2009998793947,26.6709995269775,51.2009998793947L31.1509990692139,51.2009998793947 31.1509990692139,65.1249996657716C14.2729997634888,64.4049984450685,0.72299998998642,50.8570019240724,0,33.9809986586915z M32.5629997253418,33.9799992080079L65.1259994506836,33.9799992080079C64.4039993286133,50.8559986586915,50.8530006408691,64.4049984450685,33.9749984741211,65.1249996657716L33.9749984741211,51.2009998793947 38.4550018310547,51.2009998793947C39.3549995422363,51.2009998793947,39.8559989929199,50.6380001540529,39.568000793457,49.9500004287111L33.0870018005371,34.4960018630372C32.943000793457,34.1520000930177,32.7529983520508,33.9799992080079,32.5629997253418,33.9799992080079z M33.9749984741211,0C50.8530006408691,0.72100021794904,64.4039993286133,14.2690006728517,65.1269989013672,31.1450001235353L32.5635070800781,31.1450001235353 32.6346626281738,31.136939668213C32.8002891540527,31.0993134017335,32.9615631103516,30.9299999709474,33.0880012512207,30.6289993758546L39.5690002441406,15.1749998565065C39.8559989929199,14.4870001311647,39.3559989929199,13.9249998565065,38.4560012817383,13.9249998565065L33.9749984741211,13.9249998565065z M31.1520004272461,0L31.1520004272461,13.9249998565065 26.6709995269775,13.9249998565065C25.7709999084473,13.9249998565065,25.2700004577637,14.4870001311647,25.5590000152588,15.1749998565065L32.0390014648438,30.6289993758546C32.1654396057129,30.9299999709474,32.3267097473145,31.0993134017335,32.4923400878906,31.136939668213L32.5634918212891,31.1450001235353 0,31.1450001235353C0.72299998998642,14.2690006728517,14.2740001678467,0.72100021794904,31.1520004272461,0z"/></svg>
