<svg  xmlns="http://www.w3.org/2000/svg" width=" 70.8661" height=" 70.8661" viewBox="-0 -0 70.8661 70.8661"><path d="M56.693,36.851L36.851,36.851 36.851,56.693 34.016,56.693 34.016,36.851 14.173,36.851 14.173,34.016 34.016,34.016 34.016,14.174 36.851,14.174 36.851,34.016 56.693,34.016z M69.449,34.016L63.744,34.016C63.028,19.489,51.378,7.838,36.851,7.123L36.851,1.418C36.851,0.635 36.216,0 35.433,0 34.651,0 34.016,0.635 34.016,1.418L34.016,7.123C19.489,7.838,7.838,19.489,7.123,34.016L1.418,34.016C0.635,34.016 0,34.651 0,35.434 0,36.216 0.635,36.851 1.418,36.851L7.123,36.851C7.838,51.378,19.489,63.029,34.016,63.744L34.016,69.449C34.016,70.232 34.651,70.867 35.433,70.867 36.216,70.867 36.851,70.232 36.851,69.449L36.851,63.744C51.378,63.029,63.028,51.378,63.744,36.851L69.449,36.851C70.232,36.851 70.866,36.216 70.866,35.434 70.866,34.651 70.232,34.016 69.449,34.016"/></svg>
