<svg  xmlns="http://www.w3.org/2000/svg" width=" 70.8661" height=" 70.8661" viewBox="-8.6422 -2.5927 70.8661 70.8661"><path d="M4.252,38.9492C7.478,36.6612 11.494,36.9752 14.161,39.5032 15.35,40.6302 16.359,41.9972 17.684,42.9172 18.777,43.6752 20.203,44.2932 21.504,44.3402 23.992,44.4282 25.546,42.6522 26.107,39.5212 26.107,39.5212 26.039,15.7622 26.1,9.72620000000001 26.115,8.2392 27.519,7.06620000000001 28.92,7.0742 30.354,7.0822 31.596,8.2102 31.656,9.76720000000001 31.745,12.0522 31.684,29.2612 31.684,29.2612 32.7,28.9752 33.729,28.7562 34.764,28.5972 34.764,28.5972 34.68,11.5952 34.713,5.0452 34.723,3.1942 35.986,1.94520000000001 37.623,1.96920000000001 39.27,1.9922 40.368,3.22020000000001 40.38,5.16420000000001 40.421,11.4402 40.424,28.3522 40.424,28.3522 41.457,28.4192 42.485,28.5522 43.504,28.7392 43.504,28.7392 43.43,16.0972 43.449,11.4142 43.457,9.7392 44.711,8.36620000000001 46.188,8.3202 47.747,8.2712 48.998,9.6382 49.016,11.4532 49.049,14.7222 49.039,30.4022 49.039,30.4022 50.081,30.8452 51.096,31.3592 52.077,31.9392 52.077,31.9392 52,21.4572 52.146,18.3002 52.218,16.7572 53.584,15.7452 55.069,15.8012 56.48,15.8542 57.695,16.8882 57.722,18.4002 57.746,19.7782 57.779,49.4622 57.779,49.5312 57.779,59.2702 49.884,67.1652 40.144,67.1652 34.974,67.1652 30.324,64.9392 27.099,61.3942 22.933,57.3172 6.452,41.0572 4.252,38.9492"/></svg>
