<svg  xmlns="http://www.w3.org/2000/svg" width=" 70.8661" height=" 70.8661" viewBox="-17.2844 -0 70.8661 70.8661"><path d="M18.4250001907349,53.2910004854202C20.7730007171631,53.2910009622574 22.6770000457764,54.1790009737015 22.6770009994507,55.2750007280847 22.6770000457764,55.8915010094643 22.0745630264282,56.442188501358 21.1295366287231,56.806037902832L21.1137456893921,56.8115470409393 29.1450004577637,62.292001247406C29.5319995880127,62.5560011863709,29.7639999389648,62.9950008392334,29.7639999389648,63.4630012512207L29.7639999389648,69.4490013122559C29.7639999389648,70.2320013046265 29.128999710083,70.867000579834 28.3460006713867,70.867000579834 27.5629997253418,70.867000579834 26.9290008544922,70.2320013046265 26.9290008544922,69.4490013122559L26.9290008544922,64.3470020294189 9.92100119590759,64.3470020294189 9.92100119590759,69.4490013122559C9.92100048065186,70.2320013046265 9.2860004901886,70.867000579834 8.5030003786087,70.867000579834 7.72100043296814,70.867000579834 7.08600044250488,70.2320013046265 7.08600074966142,69.4490013122559L7.08600074966142,63.4630012512207C7.08600044250488,62.9950008392334,7.31700044870377,62.5560011863709,7.70500081777573,62.292001247406L15.7362546920776,56.8115470409393 15.7204647064209,56.806037902832C14.7754378318787,56.442188501358 14.1730003356934,55.8915010094643 14.1730003356934,55.2750007280847 14.1730003356934,54.1790009737015 16.077000617981,53.2910009622574 18.4250001907349,53.2910004854202z M8.5030003786087,0C9.2860004901886,0,9.92100048065186,0.635002136230469,9.92100119590759,1.41699981689453L9.92100119590759,5.10200119018555 26.9290008544922,5.10200119018555 26.9290008544922,1.41699981689453C26.9290008544922,0.635002136230469 27.5629997253418,0 28.3460006713867,0 29.128999710083,0 29.7639999389648,0.635002136230469 29.7639999389648,1.41699981689453L29.7639999389648,5.98600006103516C29.7639999389648,6.45400238037109,29.5319995880127,6.89300155639648,29.1450004577637,7.15700149536133L22.7039670944214,11.552303314209 23.1392021179199,11.5963745117188C31.2109298706055,12.5096015930176,36.8500003814697,15.7514991760254,36.8500003814697,19.8420028686523L36.8500003814697,55.2750007280847C36.8500003814697,57.6110010147095 35.0030002593994,59.6640009880066 31.9200000762939,61.1690015792847 31.6149997711182,60.6950011253357 31.2220001220703,60.2770009040833 30.7430000305176,59.9500007629395L29.5279998779297,59.1210014820099C32.3310012817383,58.0390009880066 34.0150012969971,56.6180009841919 34.0150012969971,55.2750007280847 34.0150012969971,52.5990009307861 27.3479995727539,49.6060009002686 18.4250001907349,49.6060009002686 9.50200033187866,49.6060009002686 2.83500051498413,52.5990009307861 2.83500051498413,55.2750007280847 2.83500051498413,56.6180009841919 4.51900053024292,58.0380010604858 7.3219999819994,59.1210014820099L6.10700052976608,59.9500007629395C5.62800049781799,60.2760009765625 5.23500049114227,60.6950011253357 4.93000030517578,61.1690015792847 1.84700059890747,59.6640009880066 4.76837158203125E-07,57.6110010147095 0,55.2750007280847L0,19.8420028686523C4.76837158203125E-07,15.7514991760254,5.63907170295715,12.5096015930176,13.7107982635498,11.5963745117188L14.1460342407227,11.552303314209 7.70500081777573,7.15700149536133C7.31700044870377,6.89300155639648,7.08600044250488,6.45400238037109,7.08600074966142,5.98600006103516L7.08600074966142,1.41699981689453C7.08600044250488,0.635002136230469,7.72100043296814,0,8.5030003786087,0z"/></svg>
