<svg  xmlns="http://www.w3.org/2000/svg" width=" 70.8661" height=" 70.8661" viewBox="-17.2844 -5.1853 70.8661 70.8661"><path transform="scale(1,-1) translate(0,-60.4955)" d="M7.08600023450438,28.3010005950928L29.7630002802808,28.3010005950928 29.7630002802808,52.1259994506836C29.7630002802808,53.1800003051758 29.1860006159741,54.1020011901855 28.3309991663891,54.5900001525879 27.9920003718335,54.7820014953613 21.5690000361401,59.1080017089844 19.2499997919995,60.6710014343262 19.2189996546704,60.6920013427734 19.1979997462231,60.7060012817383 19.1690004176099,60.726001739502 18.9510000056225,60.8619995117188 18.6949994868237,60.9440002441406 18.4190004176099,60.9440002441406 18.1329992121655,60.9440002441406 17.8679998225171,60.859001159668 17.6450002497632,60.7109985351563 17.6329992121655,60.7039985656738 17.6240003413159,60.6980018615723 17.6119993037183,60.689998626709 15.3139999216992,59.1419982910156 8.8149993723828,54.7680015563965 8.46499994458739,54.5579986572266 7.6399996584851,54.0620002746582 7.08599975766722,53.1580009460449 7.08600023450438,52.1259994506836z M2.83400037946288,0L34.0149991816479,0C35.5779989069897,0,36.8499982661206,1.27100002765656,36.8499982661206,2.8340003490448L36.8499982661206,22.6770000457764C36.8499982661206,24.0849990844727,35.8160016840893,25.2469997406006,34.469001562019,25.4659996032715L2.380000144859,25.4659996032715C1.03299978437011,25.2469997406006,-2.08000500379057E-07,24.0849990844727,2.8421709430404E-14,22.6770000457764L2.8421709430404E-14,2.8340003490448C-2.08000500379057E-07,1.27100002765656,1.27099981965605,0,2.83400037946288,0z"/></svg>
