<svg  xmlns="http://www.w3.org/2000/svg" width=" 70.8661" height=" 70.8661" viewBox="-0 -5.1853 70.8661 70.8661"><path d="M7.08699989318848,36.8510014366167C6.33799982070923,36.8510014366167 5.64400005340576,37.0619999717729 5.03200006484985,37.403999025728 3.72900009155273,38.1310002159136 2.83500003814697,39.5069996665972 2.83500099182129,41.1020008873003 2.83500003814697,43.4469982933061 4.74300003051758,45.3539997886675 7.08699989318848,45.3539997886675 8.22499990463257,45.3539997886675 9.25300002098084,44.8989979576128 10.0169998407364,44.16999786606 10.8280000090599,43.3950001548784 11.3390000164509,42.3100010704057 11.3389999717474,41.1020008873003 11.3390000164509,38.7579991172807 9.43199992179871,36.8510014366167 7.08699989318848,36.8510014366167z M21.1009998321533,25.4990002464311L41.1030006408691,25.5119988273638C43.4520015716553,25.5119988273638 45.355001449585,27.4160000633257 45.355001449585,29.7639996360796 45.355001449585,32.1119992088335 43.4520015716553,34.0159985374468 41.1030006408691,34.0159985374468L41.1019992828369,34.0159985374468 26.4429998397827,34.0159985374468 11.7070004045963,46.464000399019C10.4650000333786,47.5359989952104 8.85199999809265,48.1889988731401 7.08699989318848,48.1889988731401 3.18000030517578,48.1889988731401 0,45.0099980186479 0,41.1020008873003 0,38.573001558687 1.33600044250488,36.3559986900347 3.33500003814697,35.1010014366167z M41.1019992828369,0C57.5140018463135,-3.02885268865793E-07 70.8659992218018,13.351999933626 70.8659992218018,29.7639996360796 70.8659992218018,46.1759983848589 57.5140018463135,59.5279995750444 41.1019992828369,59.5279995750444 30.7880001068115,59.5279995750444 21.6859998703003,54.2519985984819 16.3420004844666,46.2589985679643L27.4799995422363,36.8510014366167 41.1019992828369,36.8510014366167C45.0100002288818,36.8510014366167 48.1880016326904,33.6720005821245 48.1880016326904,29.7639996360796 48.1880016326904,25.8560005973833 45.0100002288818,22.6779991935747 41.1040000915527,22.6779991935747L20.3839998245239,22.6639992546098 11.4329995891312,27.5020005058306C12.5939999818802,12.1439997505205,25.4519996643066,-3.02885268865793E-07,41.1019992828369,0z"/></svg>
