<svg  xmlns="http://www.w3.org/2000/svg" width=" 70.8661" height=" 70.8661" viewBox="-0 -5.1853 70.8661 70.8661"><path d="M1.41799962520599,42.5480000931601L69.4489974975586,42.5480000931601C70.2320022583008,42.5480003356934 70.8659973144531,43.1830003261566 70.8659973144531,43.9649996757507 70.8659973144531,44.7480003833771 70.2320022583008,45.3830003738403 69.4489974975586,45.3830003738403L61.9970016479492,45.3830003738403C61.9609985351563,45.3830003738403 61.9599990844727,45.429000377655 61.9949989318848,45.4340009689331 65.7979965209961,45.9490003585815 68.7409973144531,49.2090001106262 68.7409973144531,53.1500005722046 68.7409973144531,57.9689998626709 64.3440017700195,61.7810001373291 59.351001739502,60.7860012054443 56.3660011291504,60.1909999847412 53.9529991149902,57.8090000152588 53.3269996643066,54.831000328064 52.3450012207031,50.1650004386902 55.5699996948242,46.0110003948212 59.9090003967285,45.432000875473 59.9449996948242,45.4270002841949 59.9440002441406,45.3830003738403 59.9080009460449,45.3830003738403L10.9729995727539,45.3830003738403C10.9370002746582,45.3830003738403 10.9359998703003,45.429000377655 10.9709987640381,45.4340009689331 14.7740001678467,45.9490003585815 17.7169990539551,49.2090001106262 17.7169990539551,53.1500005722046 17.7169990539551,57.9689998626709 13.3199996948242,61.7810001373291 8.32700061798096,60.7860012054443 5.34299993515015,60.1909999847412 2.92899990081787,57.8090000152588 2.30299997329712,54.831000328064 1.32200002670288,50.1650004386902 4.5460000038147,46.0110003948212 8.88599967956543,45.432000875473 8.92099952697754,45.4270002841949 8.92099952697754,45.3830003738403 8.88500022888184,45.3830003738403L1.41799962520599,45.3830003738403C0.634999990463257,45.3830003738403 0,44.7480003833771 0,43.9649996757507 0,43.1830003261566 0.634999990463257,42.5480003356934 1.41799962520599,42.5480000931601z M8.50399875640869,14.1259994506836C9.59899997711182,14.1259994506836 10.4879999160767,16.0500011444092 10.4879999160767,18.4250011444092 10.4879999160767,20.8000011444092 9.59899997711182,22.7240009307861 8.50399875640869,22.7240009307861 7.40799999237061,22.7240009307861 6.51900005340576,20.8000011444092 6.5189995765686,18.4250011444092 6.51900005340576,16.0500011444092 7.40799999237061,14.1259994506836 8.50399875640869,14.1259994506836z M8.50300025939941,2.83499908447266C6.5789999961853,2.83499908447266 2.83500003814697,8.3380012512207 2.83500027656555,18.4250011444092 2.83500003814697,28.5120000839233 6.5789999961853,34.0150003433228 8.50300025939941,34.0160007476807L8.50300025939941,34.0150003433228 8.50500011444092,34.0150003433228C10.4289999008179,34.0130004882813 14.1730003356934,28.5110006332397 14.1730003356934,18.4250011444092 14.1730003356934,8.34000015258789 10.4309997558594,2.8380012512207 8.50500011444092,2.83499908447266z M8.50300025939941,0L62.3629989624023,0C67.2109985351563,0 70.8669967651367,7.92100143432617 70.8669967651367,18.4250011444092 70.8669967651367,28.9289999008179 67.2109985351563,36.8500003814697 62.3629989624023,36.8500008583069L8.50300025939941,36.8500008583069C3.80699992179871,36.8500003814697 0,28.6010007858276 0,18.4250011444092 0,8.24900054931641 3.80699992179871,0 8.50300025939941,0z"/></svg>
