<svg  xmlns="http://www.w3.org/2000/svg" width=" 70.8661" height=" 70.8661" viewBox="-2.5927 -2.5927 70.8661 70.8661"><path d="M50.508,33.123L35.054,39.604C34.365,39.892,33.803,39.391,33.803,38.49L33.803,34.01 15.591,34.01C14.811,34.01 14.174,33.375 14.174,32.599 14.174,31.822 14.811,31.187 15.591,31.187L33.803,31.187 33.803,26.706C33.803,25.806,34.365,25.305,35.054,25.594L50.508,32.074C51.195,32.363,51.196,32.834,50.508,33.123 M32.599,0C14.595,0 0,14.595 0,32.599 0,50.602 14.595,65.197 32.599,65.197 50.602,65.197 65.197,50.602 65.197,32.599 65.197,14.595 50.602,0 32.599,0" /></svg>
