<svg  xmlns="http://www.w3.org/2000/svg" width=" 70.8661" height=" 70.8661" viewBox="-2.5927 -2.5927 70.8661 70.8661"><path d="M32.5989988807423,43.9370002746582C30.2539995673878,43.9370002746582 28.3469999793751,45.8450012207031 28.3469999793751,48.1889991760254 28.3469999793751,50.5340003967285 30.2539995673878,52.4410018920898 32.5989988807423,52.4410018920898 34.9440001014455,52.4410018920898 36.8510015968068,50.5340003967285 36.8510015968068,48.1889991760254 36.8510015968068,45.8450012207031 34.9440001014455,43.9370002746582 32.5989988807423,43.9370002746582z M32.5989988807423,11.5869998931885C26.5900000098927,11.5869998931885 22.3939989570363,15.7840003967285 22.3939989570363,21.7919998168945 22.3939989570363,22.8880004882813 23.2830008033498,23.7759990692139 24.3789995673878,23.7759990692139 25.474000788091,23.7759990692139 26.3630007270558,22.8880004882813 26.3630007270558,21.7919998168945 26.3630007270558,17.9459991455078 28.7530001167042,15.5559997558594 32.5989988807423,15.5550003051758 34.437000131963,15.5550003051758 35.9999998573048,16.1480007171631 37.122001505254,17.2689990997314 38.2429998878224,18.3899993896484 38.8359983924611,19.9540004730225 38.8349989417775,21.7919998168945 38.8349989417775,23.9650001525879 37.0989988807423,26.5249996185303 35.4659994605763,27.8290004730225L35.0120008949025,28.1909999847412C31.6720007423146,30.8500003814697,30.614999628423,31.9220008850098,30.614999628423,36.75L30.614999628423,37.4529991149902C30.614999628423,38.548999786377 31.5039995673878,39.4379997253418 32.5989988807423,39.4379997253418 33.694999552129,39.4379997253418 34.5839994910939,38.548999786377 34.5839994910939,37.4529991149902L34.5839994910939,36.75C34.5839994910939,33.6049995422363,34.6380003455861,33.5610008239746,37.4840010169728,31.2959995269775L37.9430006507619,30.9300003051758C40.2840002540333,29.0599994659424 42.804000711797,25.4029998779297 42.804000711797,21.7919998168945 42.804000711797,18.9209995269775 41.7830008033498,16.318000793457 39.9280012611134,14.4630002975464 38.0730017188771,12.6079998016357 35.470001078008,11.5869998931885 32.5989988807423,11.5869998931885z M32.5989988807423,5.66999959945679C47.4719999793751,5.67000007629395 59.5279997352345,17.7259998321533 59.5279997352345,32.5989990234375 59.5279997352345,38.1590003967285 57.8429983619435,43.3240013122559 54.9560011390431,47.6139984130859L54.0670012000783,46.7239990234375C53.2389982703908,45.8969993591309 52.1990011695607,45.4410018920898 51.1380003455861,45.4410018920898 49.6370008949025,45.4410018920898 48.3429983619435,46.3279991149902 47.7630003455861,47.7550010681152L43.997001505254,56.9980010986328C40.5349997047169,58.6180000305176 36.6739996436818,59.5279998779297 32.5989988807423,59.5279998779297 17.7269991401417,59.5279998779297 5.66999993359877,47.4720001220703 5.66999993359877,32.5989990234375 5.66999993359877,17.7259998321533 17.7269991401417,5.67000007629395 32.5989988807423,5.66999959945679z M32.5989988807423,0C50.5740011695607,0 65.1969984534962,14.6239995956421 65.1969984534962,32.5989990234375 65.1969984534962,40.5400009155273 62.3930014137013,48.0029983520508 57.2529982093556,53.9199981689453L57.259998178838,53.9269981384277 60.429000711797,57.0960006713867C61.0680006507619,57.7350006103516,61.0260008338673,58.4889984130859,60.3349989417775,58.7709999084473L44.8050001624806,65.0970001220703C44.1139982703908,65.3789978027344,43.7799986366017,65.0439987182617,44.0610006812794,64.3519973754883L50.3870008949025,48.8240013122559C50.6689985755665,48.1319999694824,51.4230001929982,48.0900001525879,52.062000131963,48.7290000915527L55.2459982398732,51.9129981994629C59.8539999488576,46.5359992980957 62.3629988197072,39.7809982299805 62.3629988197072,32.5989990234375 62.3629988197072,16.1870002746582 49.009998178838,2.83500003814697 32.5989988807423,2.83499979972839 16.187000131963,2.83500003814697 2.8349998954518,16.1870002746582 2.8349998954518,32.5989990234375 2.8349998954518,43.1030006408691 8.46699986493422,52.9410018920898 17.5319994453175,58.2729988098145 18.2070005897267,58.6699981689453 18.4319990638478,59.5390014648438 18.0349997047169,60.2140007019043 17.7709997657521,60.6619987487793 17.2980001929982,60.9119987487793 16.812000131963,60.9119987487793 16.5680006507619,60.9119987487793 16.3209990028126,60.8489990234375 16.0949991706593,60.7169990539551 6.16800007855727,54.8769989013672 -1.42695171234664E-07,44.1030006408691 0,32.5989990234375 -1.42695171234664E-07,14.6239995956421 14.6239994529469,0 32.5989988807423,0z"/></svg>
