<svg  xmlns="http://www.w3.org/2000/svg" width=" 70.8661" height=" 70.8661" viewBox="-6.9138 -12.9633 70.8661 70.8661"><path d="M11.33899974823,34.0169982314033C11.0740003585815,34.0169982314033 10.8149995803833,34.048000276081 10.5629997253418,34.0950011610908 10.4779996871948,34.1110000014228 10.3950004577637,34.1349982619208 10.3109998703003,34.157001435749 10.1510000228882,34.196998536579 9.99400043487549,34.2449988722724 9.84099960327149,34.3030013441962 9.74300003051758,34.3409995436591 9.64400005340577,34.3800010085029 9.55000019073487,34.4249991774482 9.42800045013428,34.4819983839911 9.31200027465821,34.5489997267646 9.19600009918213,34.6170005202216 9.0920000076294,34.6800002455634 8.98299980163575,34.7369994521064 8.88500022888184,34.8089980482978 8.83600044250489,34.8429984450263 8.79399967193604,34.8860015273017 8.74699974060059,34.923000276081 8.46800041198731,35.1419982314033 8.21300029754639,35.3909987807197 7.99700021743775,35.6720008253974 7.98199987411499,35.6899985670966 7.9670000076294,35.7070006728095 7.95300006866455,35.7249984145087 7.83699989318848,35.8800010085029 7.73299980163575,36.0449981093329 7.63899946212769,36.2159995436591 7.62400007247925,36.2429999709052 7.61000013351441,36.2690009474677 7.59600067138672,36.2949981093329 7.50199985504151,36.4739989638251 7.41699981689453,36.6580008864326 7.34899950027466,36.8499984145087 7.19000005722046,37.2960013747138 7.08699989318848,37.7690009474677 7.08700037002564,38.2680014967841 7.08699989318848,38.5229987502021 7.11999988555909,38.7690009474677 7.16300010681153,39.0120009779853 7.20800018310547,39.2429999709052 7.27099990844727,39.4679984450263 7.34899950027466,39.6860007643622 7.9359998703003,41.3320006728095 9.49400043487549,42.5200003981513 11.33899974823,42.5200003981513 13.1850004196167,42.5200003981513 14.7430000305176,41.3320006728095 15.3299999237061,39.6860007643622 15.4079999923706,39.4669989943427 15.4709997177124,39.2429999709052 15.5159997940064,39.0120009779853 15.5590000152588,38.7690009474677 15.5909996032715,38.5229987502021 15.5909996032715,38.2680014967841 15.5909996032715,37.7690009474677 15.4890003204346,37.2960013747138 15.3299999237061,36.8499984145087 15.2609996795654,36.6580008864326 15.1770000457764,36.4739989638251 15.0830001831055,36.2949981093329 15.0690002441406,36.2690009474677 15.0550003051758,36.2420005202216 15.039999961853,36.2159995436591 14.9449996948242,36.0449981093329 14.8420000076294,35.8800010085029 14.7259998321533,35.7249984145087 14.7110004425049,35.7060012221259 14.6949996948242,35.688999116413 14.6809997558594,35.6710013747138 14.4650001525879,35.3909987807197 14.2110004425049,35.1419982314033 13.9329996109009,34.9239997267646 13.8859996795654,34.8870009779853 13.8430004119873,34.8440017104072 13.793999671936,34.8089980482978 13.6949996948242,34.7369994521064 13.5869998931885,34.6800002455634 13.4820003509522,34.6170005202216 13.3669996261597,34.5489997267646 13.2510004043579,34.4819983839911 13.128999710083,34.4249991774482 13.0340003967285,34.3800010085029 12.9359998703003,34.3400000929755 12.8369998931885,34.3030013441962 12.6850004196167,34.2449988722724 12.5279998779297,34.196998536579 12.3669996261597,34.157001435749 12.2840003967285,34.1349982619208 12.2010002136231,34.1110000014228 12.1160001754761,34.0950011610908 11.8629999160767,34.048000276081 11.6049995422363,34.0169982314033 11.33899974823,34.0169982314033z M39.6860008239746,34.0159987807197C39.1860008239746,34.0159987807197 38.7140007019043,34.1189994215888 38.2690010070801,34.2779998183173 37.068000793457,34.7060012221259 36.1230010986328,35.6500014662665 35.6949996948242,36.8499984145087 35.5369987487793,37.2960013747138 35.4339981079102,37.7690009474677 35.4339981079102,38.2680014967841 35.4339981079102,38.5219992995185 35.4659996032715,38.7690009474677 35.5089988708496,39.0120009779853 35.5550003051758,39.2429999709052 35.6180000305176,39.4669989943427 35.6949996948242,39.6850013136786 36.2820014953613,41.3320006728095 37.8409996032715,42.5200003981513 39.6860008239746,42.5200003981513 42.0309982299805,42.5200003981513 43.9379997253418,40.61299890279 43.9379997253418,38.2680014967841 43.9379997253418,36.423000276081 42.7490005493164,34.8650016188544 41.1030006408691,34.2779998183173 40.8860015869141,34.2000007033271 40.6609992980957,34.1370009779853 40.4300003051758,34.0919989943427 40.1870002746582,34.048000276081 39.9410018920898,34.0159987807197 39.6860008239746,34.0159987807197z M13.8190002441406,2.81499999760809L13.8100004196167,20.6389998793525 18.988000869751,25.5119990706367 33.6720008850098,25.5119990706367 33.6809997558594,2.81499999760809z M45.3549995422363,0.00100023321966347C46.1370010375977,0.000999940435129076,46.7719993591309,0.635999917976285,46.7719993591309,1.41799944638434L46.7719993591309,28.3470000624579 55.2760009765625,28.3470000624579C56.0589981079102,28.3470000624579 56.693000793457,28.9820002913398 56.693000793457,29.7639998793525 56.693000793457,30.5470008253974 56.0589981079102,31.1819991469306 55.2760009765625,31.1819991469306L45.3419990539551,31.1819991469306C44.5660018920898,31.1819991469306,43.9370002746582,30.5529994368476,43.9370002746582,29.7770003676337L43.9370002746582,1.41799944638434C43.9370002746582,0.635999917976285,44.5719985961914,0.000999940435129076,45.3549995422363,0.00100023321966347z M12.4209995269775,7.105427357601E-15L35.0789985656738,7.105427357601E-15C35.8610000610352,-5.96123683749283E-08,36.4959983825684,0.634999930850888,36.4959983825684,1.41700011491003L36.4869995117188,25.5119990706367 39.6860008239746,25.5119990706367C40.4690017700195,25.5119990706367,41.1030006408691,26.1459998488349,41.1030006408691,26.9290007948798L41.1030006408691,31.3239993452949C44.3339996337891,31.9829997420234 46.7729988098145,34.8460006117744 46.7729988098145,38.2680014967841 46.7729988098145,42.1749991774482 43.5940017700195,45.354999482624 39.6860008239746,45.354999482624 36.2639999389648,45.354999482624 33.4000015258789,42.9160003065986 32.742000579834,39.6850013136786L18.2830009460449,39.6860007643622C17.625,42.9160003065986 14.7620000839233,45.354999482624 11.33899974823,45.354999482624 7.91699981689453,45.354999482624 5.05399990081787,42.9160003065986 4.39499998092652,39.6860007643622L1.41800034046173,39.6860007643622C0.63499999046326,39.6860007643622,3.5527136788005E-15,39.0509986281318,0,38.2680014967841L0,21.2600001692695C3.5527136788005E-15,20.4769992232245,0.63499999046326,19.8430003523749,1.41800034046173,19.8430003523749L10.9949998855591,19.8430003523749 11.0030002593994,1.41700011491003C11.0030002593994,0.634999930850888,11.6379995346069,-5.96123683749283E-08,12.4209995269775,7.105427357601E-15z" /></svg>
