<svg  xmlns="http://www.w3.org/2000/svg" width=" 70.8661" height=" 70.8661" viewBox="-12.9633 -12.0991 70.8661 70.8661"><path d="M12.7569999694824,21.2600002288818C19.3600006103516,21.2600002288818,24.8060007095337,26.3020000457764,25.4490003585815,32.7389984130859L21.4320001602173,30.568000793457 12.382000207901,30.5729999542236C10.5820002518594,30.5729999542236 9.11800026893616,32.0379981994629 9.11800026893616,33.8380012512207 9.11800026893616,35.6380004882813 10.5830002501607,37.1030006408691 12.3830003738403,37.1030006408691L18.2350001335144,37.1030006408691 23.210000038147,41.3059997558594C20.9020004272461,44.6049995422363 17.0800004005432,46.7719993591309 12.7569999694824,46.7719993591309 5.72300004959106,46.7719993591309 0,41.0499992370605 0,34.015998840332 0,26.9820003509521 5.72300004959106,21.2600002288818 12.7569999694824,21.2600002288818z M27.6379995346069,0L43.2290010452271,0C44.012001991272,0,44.6460008621216,0.63400000333786,44.6460008621216,1.4170001745224L44.6460008621216,45.3540000915527C44.6460008621216,46.1370010375977,44.012001991272,46.7709999084473,43.2290010452271,46.7709999084473L27.6379995346069,46.7719993591309C26.8550004959106,46.7719993591309,26.2210006713867,46.1370010375977,26.2210006713867,45.3549995422363L26.2210006713867,41.6660003662109C25.8299999237061,41.5379981994629,25.4610004425049,41.3580017089844,25.1560001373291,41.0950012207031L18.7530002593994,35.6860008239746 12.3830003738403,35.6860008239746C11.3630002737045,35.6860008239746 10.53600025177,34.8580017089844 10.5360005930429,33.8380012512207 10.53600025177,32.8170013427734 11.3630002737045,31.9899997711182 12.3830003738403,31.9899997711182L21.0740003585815,31.9850006103516 26.2210006713867,34.7669982910156 26.2210006713867,1.4170001745224C26.2210006713867,0.634999990463257,26.8550004959106,0,27.6379995346069,0z"/></svg>
