<svg  xmlns="http://www.w3.org/2000/svg" width=" 70.8661" height=" 70.8661" viewBox="-2.5927 -2.5927 70.8661 70.8661"><path d="M53.652,12.289L47.307,27.799C47.025,28.49,46.273,28.533,45.636,27.897L42.467,24.728 37.607,29.588 29.59,37.606 24.729,42.466 27.898,45.635C28.534,46.271,28.491,47.023,27.799,47.306L12.29,53.651C11.599,53.934,11.265,53.601,11.548,52.91L17.893,37.399C18.176,36.709,18.928,36.665,19.565,37.302L22.733,40.47 27.593,35.61 35.611,27.592 40.471,22.732 37.303,19.564C36.666,18.927,36.71,18.175,37.4,17.892L52.911,11.547C53.602,11.264,53.935,11.598,53.652,12.289 M32.598,0C14.595,0 0,14.596 0,32.599 0,50.602 14.595,65.198 32.598,65.198 50.602,65.198 65.197,50.602 65.197,32.599 65.197,14.596 50.602,0 32.598,0"/></svg>
