<svg  xmlns="http://www.w3.org/2000/svg" width=" 70.8661" height=" 70.8661" viewBox="-0 -0 70.8661 70.8661"><path d="M47.7480010986328,50.7966327667236C51.0950012207031,54.1316337585449,53.1669998168945,58.7146339416504,53.1669998168945,63.7696304321289L53.1669998168945,70.8666305541992 15.7729997634888,70.8666305541992 15.7729997634888,63.7696304321289C15.7729997634888,61.6006317138672,16.173999786377,59.5266304016113,16.8740005493164,57.5916328430176L23.7479991912842,64.3766326904297C26.4519996643066,67.0446319580078 30.0480003356934,68.5136337280273 33.8740005493164,68.5136337280273 37.701000213623,68.5136337280273 41.2980003356934,67.0446319580078 44.0019989013672,64.3766326904297 46.7159996032715,61.6976318359375 48.2099990844727,58.1306304931641 48.2099990844727,54.3296318054199 48.2099990844727,53.1196327209473 48.0419998168945,51.9386329650879 47.7480010986328,50.7966327667236z M11.5087490081787,26.5781311988831C10.0364999771118,26.5781321525574 8.56400012969971,27.1326322555542 7.44000053405762,28.241632938385 5.19399976730347,30.4586324691772 5.19399976730347,34.0536317825317 7.44000053405762,36.2706317901611 9.6879997253418,38.4876327514648 13.3299999237061,38.4876327514648 15.576000213623,36.2706317901611 17.8239994049072,34.0536317825317 17.8239994049072,30.4586324691772 15.576000213623,28.241632938385 14.4530000686646,27.1326322555542 12.9809999465942,26.5781321525574 11.5087490081787,26.5781311988831z M11.5010004043579,20.8986316609017C14.4469995498657,20.8986320793629,17.3929996490479,22.0056321620941,19.6359996795654,24.2196326255798L42.0099983215332,46.2996311187744C46.4959983825684,50.727632522583 46.4959983825684,57.9306335449219 42.0099983215332,62.3586311340332 39.7680015563965,64.5716323852539 36.8199996948242,65.6786308288574 33.8740005493164,65.6786308288574 30.92799949646,65.6786308288574 27.9820003509521,64.5726318359375 25.738000869751,62.3586311340332L3.3659999370575,40.2776317596436C-1.12199997901917,35.8506317138672 -1.12199997901917,28.646632194519 3.3659999370575,24.2196326255798 5.60900020599365,22.0056321620941 8.55500030517578,20.8986320793629 11.5010004043579,20.8986316609017z M24.6989994049072,6.49663162231445C24.6040000915527,7.1326322555542 24.55299949646,7.77963161468506 24.57200050354,8.43763160705566 24.6569995880127,11.4886322021484 25.9699993133545,14.2866320610046 28.2709999084473,16.3196320533752L35.5449981689453,22.7456325292587C33.5929985046387,24.9386320114136,31.4200000762939,27.3716320991516,29.2810001373291,29.7536315917969L21.6280002593994,22.2016324996948C18.5849990844727,19.1976320743561 14.5019998550415,17.8436319828033 10.5120000839233,18.114631652832 15.1899995803833,14.213632106781 20.7310009002686,9.70563220977783 24.6989994049072,6.49663162231445z M35.4422302246094,0.00258636474609375C35.5847778320313,-0.000871658325195313 35.7280654907227,-0.000867843627929688 35.8720016479492,0.00263214111328125 38.1590003967285,0.0656318664550781 40.2589988708496,1.02563285827637 41.7849998474121,2.70763206481934L58.0289993286133,20.6196324825287C58.9119987487793,21.593632042408,59.4560012817383,22.753632068634,59.6730003356934,23.9576318264008L64.6969985961914,23.0516324043274C65.3939971923828,22.9296319484711,66.1100006103516,23.1456320285797,66.6100006103516,23.6396317481995L70.8190002441406,27.7936320304871 67.6600036621094,30.9116315841675 64.75,28.9996318817139C64.5579986572266,28.8756322860718,64.3170013427734,28.8456320762634,64.1019973754883,28.9256324768066L58.7109985351563,30.8996324539185 56.7120018005371,36.2196321487427C56.6319999694824,36.4316320419312,56.6599998474121,36.6716318130493,56.7869987487793,36.8576316833496L58.7229995727539,39.731632232666 55.5639991760254,42.8476314544678 51.3559989929199,38.6956329345703C50.8549995422363,38.2016315460205,50.6310005187988,37.493631362915,50.757999420166,36.8076324462891L51.6759986877441,31.8516321182251C50.4560012817383,31.6376323699951,49.2809982299805,31.0976324081421,48.2949981689453,30.2256326675415L30.1469993591309,14.195631980896C28.4419994354248,12.6876316070557 27.4669990539551,10.6156320571899 27.4039993286133,8.35963153839111 27.3409996032715,6.1016321182251 28.19700050354,3.97763252258301 29.8150005340576,2.38163185119629 31.3318748474121,0.885381698608398 33.3040237426758,0.0544643402099609 35.4422302246094,0.00258636474609375z"/></svg>
