<svg  xmlns="http://www.w3.org/2000/svg" width=" 70.8661" height=" 70.8661" viewBox="-.8642 -.8642 70.8661 70.8661"><path d="M67.928,32.901C67.794,31.157,67.524,29.451,67.127,27.795L69.658,26.105 69.131,24.484 68.605,22.862 65.568,22.983C64.904,21.378,64.117,19.838,63.217,18.374L65.1,15.985 64.098,14.607 63.096,13.227 60.234,14.284C59.115,12.973,57.893,11.752,56.582,10.632L57.639,7.77 56.259,6.768 54.881,5.765 52.491,7.651C51.028,6.75,49.488,5.964,47.884,5.3L48.004,2.262 46.382,1.735 44.761,1.207 43.069,3.742C41.413,3.344,39.709,3.075,37.966,2.942L37.137,0 35.433,0 33.728,0 32.899,2.942C31.157,3.076,29.453,3.346,27.798,3.743L26.105,1.207 24.483,1.734 22.862,2.261 22.983,5.303C21.38,5.967,19.841,6.753,18.379,7.653L15.985,5.765 14.606,6.767 13.226,7.769 14.286,10.637C12.976,11.756,11.757,12.976,10.638,14.286L7.769,13.227 6.767,14.606 5.765,15.985 7.654,18.38C6.755,19.841,5.969,21.38,5.306,22.983L2.261,22.862 1.734,24.484 1.207,26.105 3.746,27.8C3.349,29.454,3.08,31.157,2.946,32.898L0,33.728 0,35.433 0,37.138 2.946,37.967C3.08,39.709,3.349,41.412,3.746,43.066L1.207,44.761 1.734,46.382 2.261,48.004 5.306,47.883C5.969,49.485,6.755,51.024,7.654,52.486L5.765,54.88 6.767,56.26 7.77,57.639 10.638,56.579C11.757,57.89,12.976,59.109,14.286,60.228L13.227,63.097 14.606,64.099 15.986,65.101 18.379,63.213C19.841,64.112,21.38,64.899,22.983,65.562L22.863,68.605 24.483,69.131 26.105,69.658 27.799,67.122C29.453,67.52,31.157,67.789,32.899,67.923L33.728,70.865 35.433,70.865 37.137,70.865 37.966,67.923C39.709,67.79,41.413,67.521,43.069,67.123L44.761,69.658 46.382,69.131 48.003,68.604 47.883,65.565C49.487,64.901,51.027,64.115,52.49,63.215L54.88,65.1 56.259,64.098 57.639,63.096 56.581,60.233C57.893,59.113,59.114,57.893,60.234,56.581L63.096,57.639 64.098,56.259 65.1,54.88 63.216,52.492C64.116,51.028,64.904,49.488,65.568,47.883L68.604,48.004 69.131,46.382 69.658,44.76 67.126,43.07C67.524,41.414,67.794,39.709,67.928,37.965L70.866,37.138 70.866,35.433 70.866,33.728z"/></svg>
