<svg  xmlns="http://www.w3.org/2000/svg" width=" 70.8661" height=" 70.8661" viewBox="-2.5927 -2.5927 70.8661 70.8661"><path d="M33.98,49.606C33.98,50.386 33.342,51.023 32.563,51.023 31.783,51.023 31.145,50.386 31.145,49.606L31.145,15.59C31.145,14.811 31.783,14.173 32.563,14.173 33.342,14.173 33.98,14.811 33.98,15.59z M54.036,38.491C54.036,39.391,53.473,39.892,52.785,39.603L37.331,33.123C36.643,32.834,36.642,32.362,37.331,32.074L52.785,25.593C53.473,25.305,54.036,25.806,54.036,26.706L54.036,31.187 65.125,31.187C64.385,13.838 50.093,0 32.563,0 15.032,0 0.74,13.838 0,31.187L11.089,31.187 11.089,26.706C11.089,25.806,11.652,25.305,12.34,25.593L27.794,32.074C28.483,32.362,28.482,32.834,27.794,33.123L12.34,39.603C11.652,39.892,11.089,39.391,11.089,38.491L11.089,34.01 0,34.01C0.74,51.358 15.032,65.196 32.563,65.196 50.093,65.196 64.385,51.358 65.125,34.01L54.036,34.01z" /></svg>
