<svg  xmlns="http://www.w3.org/2000/svg" width=" 70.8661" height=" 70.8661" viewBox="-2.5927 -2.5927 70.8661 70.8661"><path d="M0,32.5989995728014C2.74681951850653E-07,32.7889981995104,0.172000280523207,32.9790006409166,0.516000605130102,33.1230016479967L15.9700005417108,39.603001190233C16.6590006714105,39.8919988403795,17.2210009460687,39.3919988403795,17.2210009460687,38.4910016785143L17.2210009460687,34.0099988708971 31.1810000305413,34.0099988708971 31.1810000305413,49.6059995422838C31.1810000305413,50.3859983215807 31.8190005188226,51.023998809862 32.5979998474359,51.023998809862 33.3779986267327,51.023998809862 34.015999115014,50.3859983215807 34.015999115014,49.6059995422838L34.015999115014,34.0099988708971 47.9760020141839,34.0099988708971 47.9760020141839,38.4910016785143C47.9760020141839,39.3919988403795,48.5379984741448,39.8919988403795,49.2270014648675,39.603001190233L64.6800005798577,33.1230016479967C65.0240023498773,32.9790006409166 65.1969988708734,32.7889981995104 65.1969988708734,32.5989995728014 65.1969988708734,50.6020017395495 50.6020014648675,65.1969991455553 32.5979998474359,65.1969991455553 14.5950005417108,65.1969991455553 2.74681951850653E-07,50.6020017395495 0,32.5989995728014z M32.5989992981195,0C50.6020014648675,0 65.1969988708734,14.5949998627184 65.1969988708734,32.5980001221178 65.1969988708734,32.4090009460924 65.0250018005609,32.2189985046862 64.6810000305413,32.0750013123034L49.2270014648675,25.5929990540026C48.5379984741448,25.3050008545397,47.9760020141839,25.8069997559069,47.9760020141839,26.7069993744371L47.9760020141839,31.1870008240221 34.015999115014,31.1870008240221 34.015999115014,15.5910001526354C34.015999115014,14.8110004196642 33.3779986267327,14.1729999313829 32.5989992981195,14.1729999313829 31.8190005188226,14.1729999313829 31.1810000305413,14.8110004196642 31.1810000305413,15.5910001526354L31.1810000305413,31.1870008240221 17.2210009460687,31.1870008240221 17.2210009460687,26.7069993744371C17.2210009460687,25.8069997559069,16.6590006714105,25.3050008545397,15.9700005417108,25.5929990540026L0.516000605130102,32.0750013123034C0.172000280523207,32.2189985046862 2.74681951850653E-07,32.4090009460924 0,32.5980001221178 2.74681951850653E-07,14.5949998627184 14.5950005417108,0 32.5989992981195,0z" /></svg>
