<svg  xmlns="http://www.w3.org/2000/svg" width=" 70.8661" height=" 70.8661" viewBox="-2.5927 -2.5927 70.8661 70.8661"><path d="M32.599001,27.496001C31.818998,27.496,31.182001,28.134001,31.182001,28.913L31.182001,40.251999C31.182001,41.031002 31.818998,41.668999 32.599001,41.668999 33.378,41.668999 34.016001,41.031002 34.016001,40.251999L34.016001,28.913C34.016001,28.134001,33.378,27.496,32.599001,27.496001z M12.372,20.976001L52.816999,20.976001 32.594999,55.969z M7.4600005,18.140999L32.595001,61.634996 57.729002,18.140999z M32.599001,0C50.603003,0 65.197004,14.594999 65.197004,32.597998 65.197004,50.601997 50.603003,65.196997 32.599001,65.196997 14.595001,65.196997 0,50.601997 0,32.597998 0,14.594999 14.595001,0 32.599001,0z"/></svg>
