<svg  xmlns="http://www.w3.org/2000/svg" width=" 70.8661" height=" 70.8661" viewBox="-17.2844 -0 70.8661 70.8661"><path d="M4.25200080871582,64.0010004043579C7.9060001373291,65.657000541687 12.775000333786,66.6140003204346 18.4250001907349,66.6140003204346 24.0750007629395,66.6140003204346 28.9440002441406,65.657000541687 32.5979995727539,64.0010004043579L32.5979995727539,68.0310001373291C32.5979995727539,69.5939998626709,31.326000213623,70.8660011291504,29.7630004882813,70.8660011291504L7.08699989318848,70.8660011291504C5.52400016784668,70.8660011291504,4.25200080871582,69.5939998626709,4.25200080871582,68.0310001373291z M18.4250001907349,53.2910008194939C20.7730002403259,53.2910003662109 22.6770000457764,54.179000377655 22.6770009994507,55.2750004529953 22.6770000457764,56.371000289917 20.7730002403259,57.2590003013611 18.4250001907349,57.2590000629425 16.0770003795624,57.2590003013611 14.1730003356934,56.371000289917 14.1729998265713,55.2750004529953 14.1730003356934,54.179000377655 16.0770003795624,53.2910003662109 18.4250001907349,53.2910008194939z M18.4250001907349,49.6070003509521C9.50200033187866,49.6070003509521 2.83500003814697,52.6000003814697 2.83500003814697,55.2760004997253 2.83500003814697,57.9520001411438 9.50200033187866,60.9450001716614 18.4250001907349,60.9450006484985 27.3480005264282,60.9450001716614 34.0149993896484,57.9520001411438 34.0149993896484,55.2760004997253 34.0149993896484,52.6000003814697 27.3480005264282,49.6070003509521 18.4250001907349,49.6070003509521z M18.4250001907349,7.08700180053711C28.9289999008179,7.08700180053711,36.8500003814697,10.742000579834,36.8500003814697,15.5900001525879L36.8500003814697,55.2760004997253C36.8500003814697,60.1240005493164 28.9289999008179,63.7800006866455 18.4250001907349,63.7799997329712 7.92100048065186,63.7800006866455 0,60.1240005493164 0,55.2760004997253L0,15.5900001525879C0,10.742000579834,7.92100048065186,7.08700180053711,18.4250001907349,7.08700180053711z M7.08700084686279,0L29.7630004882813,0C31.326000213623,0,32.5979995727539,1.27199935913086,32.5979995727539,2.83499908447266L32.5979995727539,6.8650016784668C28.9440002441406,5.20899963378906 24.0750007629395,4.25199890136719 18.4250001907349,4.25199890136719 12.775000333786,4.25199890136719 7.9060001373291,5.20899963378906 4.25200080871582,6.8650016784668L4.25200080871582,2.83499908447266C4.25200080871582,1.27199935913086,5.52400016784668,0,7.08700084686279,0z"/></svg>
