<svg  xmlns="http://www.w3.org/2000/svg" width=" 70.8661" height=" 70.8661" viewBox="-2.5927 -2.5927 70.8661 70.8661"><path d="M42.266,29.494L33.146,52.395C33.036,52.691,32.598,52.611,32.598,52.296L32.598,36.089 23.196,36.089C22.996,36.089,22.86,35.891,22.93,35.706L32.05,12.803C32.16,12.507,32.598,12.587,32.598,12.902L32.598,29.111 42,29.111C42.2,29.111,42.336,29.309,42.266,29.494 M32.598,0C14.594,0 -0.001,14.596 -0.001,32.599 -0.001,50.602 14.594,65.198 32.598,65.198 50.602,65.198 65.196,50.602 65.196,32.599 65.196,14.596 50.602,0 32.598,0"/></svg>
