<svg  xmlns="http://www.w3.org/2000/svg" width=" 70.8661" height=" 70.8661" viewBox="-4.3211 -0 70.8661 70.8661"><path d="M10.9589995667338,28.3480012860046L25.4729995056987,28.3480012860046 25.4729995056987,42.5180015563965 10.9569997116923,42.5180015563965 0.714000217616558,36.6630010604858C-0.238000072538853,36.1190013885498,-0.238000072538853,34.7460012435913,0.714000217616558,34.2020010948181z M60.9110831543803,0.000339508056640625C61.4136657044292,-0.0106658935546875 61.9065627381206,0.246501922607422 62.1739997193217,0.714000701904297 62.5629996582866,1.39000129699707 62.327999047935,2.25900077819824 61.6479987427592,2.64700126647949L49.3569983765483,9.68500137329102C50.3250006958842,11.673002243042 51.1809996888042,13.7150011062622 51.9169997498393,15.8060007095337 51.9199981018901,15.8170013427734 51.9239997193217,15.8280010223389 51.9269980713725,15.8390016555786 52.2869986817241,16.8630018234253 52.6209983155131,17.895001411438 52.9239997193217,18.939001083374 52.9459990784526,19.0130014419556 52.9640006348491,19.0890016555786 52.9850005432963,19.1630010604858 53.2659987732768,20.1460018157959 53.5279998108745,21.1330013275146 53.7579993531108,22.1300015449524 53.7989997193217,22.306001663208 53.8310012146831,22.4850015640259 53.8699988648295,22.6610016822815 54.069999627769,23.5640015602112 54.259998254478,24.469001531601 54.4179992005229,25.3820013999939 54.4739989563823,25.7040014266968 54.5120009705424,26.0300014019012 54.5629996582866,26.3530013561249 54.6839980408549,27.1320015192032 54.8079985901713,27.9100014865398 54.8979987427592,28.6940020024776 54.9620017334819,29.2390014529228 54.997001580894,29.788001537323 55.0449981018901,30.3350011110306 55.0960006043315,30.9120013713837 55.1609992310405,31.4880015850067 55.1940001770854,32.0670013427734 55.2610015198588,33.2060012817383 55.2960013672709,34.3470015525818 55.2960013672709,35.4910016059875 55.2960013672709,36.6300010681152 55.2610015198588,37.7680015563965 55.194999627769,38.9030017852783 55.1619986817241,39.4780015945435 55.0970000550151,40.0510015487671 55.0470008179545,40.6240015029907 54.9999999329448,41.1710014343262 54.9640006348491,41.7190017700195 54.9010009095073,42.2640018463135 54.812000207603,43.0430011749268 54.6889991089702,43.8160018920898 54.5690001770854,44.5900020599365 54.5190009400249,44.9140014648438 54.4799994751811,45.2410011291504 54.4239997193217,45.564001083374 54.2680014893413,46.4720020294189 54.0789984986186,47.3730010986328 53.8810004517436,48.2720012664795 53.8419989868999,48.4490013122559 53.8110007569194,48.628002166748 53.7700003907084,48.8050022125244 53.5419997498393,49.798002243042 53.2820014283061,50.7810020446777 53.0029982849956,51.7590007781982 52.9819983765483,51.8340015411377 52.9630011841655,51.9100017547607 52.9420012757182,51.9850006103516 52.6419982239604,53.0230007171631 52.3110007569194,54.0500011444092 51.9550017639995,55.068000793457 51.9500006958842,55.0810012817383 51.9459990784526,55.0940017700195 51.9410018250346,55.1080017089844 51.210998468101,57.1910018920898 50.3619994446635,59.2250022888184 49.4020003601909,61.2060031890869L61.6479987427592,68.2180004119873C62.327999047935,68.6070003509521 62.5629996582866,69.4750003814697 62.1739997193217,70.1520023345947 61.7849997803569,70.8320026397705 60.9189986512065,71.0670032501221 60.2400016114116,70.6780033111572L48.1399993225932,63.749002456665 48.1370009705424,63.7550029754639 15.940999917686,45.3530006408691 26.9680003449321,45.3530006408691C27.7509993836284,45.3530006408691,28.3850001618266,44.7180023193359,28.3850001618266,43.935001373291L28.3850001618266,40.3760013580322 34.8510016724467,43.2750015258789C35.7890013977885,43.6950016021729,36.8479995056987,43.0090017318726,36.8479995056987,41.9810018539429L36.8479995056987,28.5460020005703C36.8479995056987,27.5180014967918,35.7890013977885,26.8330014944077,34.8510016724467,27.2530015707016L28.3850001618266,30.1510015726089 28.3850001618266,26.9300011396408C28.3850001618266,26.1470015048981,27.7509993836284,25.5130014419556,26.9680003449321,25.5130009651184L15.944999627769,25.5130009651184 48.0909995362163,7.14400100708008 60.2400016114116,0.187002182006836C60.4521865174174,0.0657520294189453,60.6826361939311,0.00534248352050781,60.9110831543803,0.000339508056640625z"/></svg>
