<?xml version="1.0" encoding="UTF-8" standalone="no"?>
<!-- Generator: Adobe Illustrator 20.0.0, SVG Export Plug-In . SVG Version: 6.00 Build 0)  -->

<svg
   xmlns:dc="http://purl.org/dc/elements/1.1/"
   xmlns:cc="http://creativecommons.org/ns#"
   xmlns:rdf="http://www.w3.org/1999/02/22-rdf-syntax-ns#"
   xmlns:svg="http://www.w3.org/2000/svg"
   xmlns="http://www.w3.org/2000/svg"
   xmlns:sodipodi="http://sodipodi.sourceforge.net/DTD/sodipodi-0.dtd"
   xmlns:inkscape="http://www.inkscape.org/namespaces/inkscape"
   version="1.1"
   id="Ebene_1"
   x="0px"
   y="0px"
   viewBox="0 0 32 32"
   style="enable-background:new 0 0 32 32;"
   xml:space="preserve"
   width="32px"
   height="32px"
   class="br-symbol-library"
   sodipodi:docname="WebcamRed.svg"
   inkscape:version="0.92.5 (2060ec1f9f, 2020-04-08)"><metadata
   id="metadata3731"><rdf:RDF><cc:Work
       rdf:about=""><dc:format>image/svg+xml</dc:format><dc:type
         rdf:resource="http://purl.org/dc/dcmitype/StillImage" /><dc:title /></cc:Work></rdf:RDF></metadata><defs
   id="defs3729" /><sodipodi:namedview
   pagecolor="#ffffff"
   bordercolor="#666666"
   borderopacity="1"
   objecttolerance="10"
   gridtolerance="10"
   guidetolerance="10"
   inkscape:pageopacity="0"
   inkscape:pageshadow="2"
   inkscape:window-width="3840"
   inkscape:window-height="2097"
   id="namedview3727"
   showgrid="false"
   inkscape:zoom="60.3125"
   inkscape:cx="15.959914"
   inkscape:cy="16.52228"
   inkscape:window-x="-8"
   inkscape:window-y="-8"
   inkscape:window-maximized="1"
   inkscape:current-layer="Ebene_1" />
<g
   id="Webcam"
   style="fill:#fc0000">
	<path
   id="webcam_3_"
   d="M16,15.6c-1.2,0-2.2-1-2.2-2.2s1-2.2,2.2-2.2c1.2,0,2.2,1,2.2,2.2S17.2,15.6,16,15.6z M25.9,27.2l-1.6-1   c-0.6-0.4-1.8-0.7-2.5-0.7h-3.1l0.6-1.7c5.1-1.5,8.8-6.2,8.8-11.7c0-6.2-4.8-11.4-11-12.1v8.3c2.5,0.6,4.2,2.7,4.2,5.1   s-1.7,4.5-4.2,5.1V24h-0.8h-0.5H15v-5.5c-2.3-0.6-4.2-2.7-4.2-5.1s2-4.5,4.2-5.1V0C9,0.7,3.9,5.8,3.9,12c0,5.5,3.7,10.3,8.7,11.8   l0.6,1.7h-3.1c-0.8,0-1.9,0.2-2.5,0.7l-1.6,1c-0.6,0.4-0.8,1.3-0.4,1.9c0,0,2,2.9,10.3,2.9s10.3-2.9,10.3-2.9   C26.7,28.5,26.5,27.6,25.9,27.2z"
   style="fill:#fc0000" />
</g>
<g
   id="Ebene_1_1_">
</g>
</svg>