<svg  xmlns="http://www.w3.org/2000/svg" width=" 70.8661" height=" 70.8661" viewBox="-2.5927 -2.5927 70.8661 70.8661"><path d="M57.138998,37.358C48.193998,47.097 36.247,53.656 23.278,55.950001 26.226999,57.141001 29.4,57.768 32.625999,57.768 39.284,57.768 45.545,55.167 50.255999,50.445 53.881998,46.809999 56.238001,42.263 57.138998,37.358z M60.136999,29.042C61.238001,37.349999 58.635,46.058001 52.262999,52.447001 41.949999,62.785 25.573,63.287998 14.642999,53.994999 33.514999,53.434999 50.122,43.681 60.136999,29.042z M29.398,7.8920002C23.934999,8.5970001 18.838,11.097 14.939,15.007 6.1889992,23.781 5.1399994,37.427 12.444,47.454 12.574,47.632999 12.712,47.820999 12.856,48.013 12.881,48.014 12.906,48.014 12.931,48.014 13.142,48.014 13.351,48.006001 13.558999,47.999001L13.712,47.993999C26.389,47.576 36.320999,37.281 36.320999,24.558 36.320999,18.289 33.888,12.396 29.469999,7.9629993 29.446,7.9389992 29.422,7.9160004 29.398,7.8920002z M34.882999,4.9459991C41.223,5.4650002 47.415998,8.1429996 52.265001,13.004 55.617998,16.362 57.926001,20.368 59.206999,24.616001 52.823,35.208 42.926001,43.436 31.146999,47.674 37.952,42.274 42.336,33.92 42.336,24.558 42.336,17.252 39.698999,10.351999 34.882999,4.9459991z M30.354,4.9429989C30.730999,5.2819996 31.118,5.6040001 31.477999,5.9619999 36.431,10.931 39.154999,17.532 39.154999,24.558 39.154999,38.763 27.858,50.362999 13.802999,50.827 13.513,50.836 13.224,50.848 12.931,50.848 12.438,50.848 11.944,50.833 11.456999,50.808001 10.992,50.263 10.57,49.695999 10.152999,49.122999 2.2089996,38.217 3.1089993,22.855 12.931,13.006001 17.792,8.132 24.002999,5.4549999 30.354,4.9429989z M32.597,1.7449989C24.358,1.7449989 16.611,4.9529991 10.783,10.778999 4.9549999,16.606999 1.7459993,24.355 1.7459993,32.596999 1.7459993,49.608999 15.584,63.446999 32.597,63.446999 49.608999,63.446999 63.448999,49.607 63.448999,32.596 63.448999,15.585999 49.608999,1.7460003 32.597,1.7449989z M32.597,0C50.573,0.0030002594 65.197001,14.624 65.197001,32.599 65.197001,50.573999 50.573,65.195 32.597,65.195 14.623,65.195 0,50.573999 0,32.599999 0,23.893 3.3909998,15.705 9.5469999,9.546999 15.705,3.3920002 23.891999,0 32.597,0z"/></svg>
