<svg  xmlns="http://www.w3.org/2000/svg" width=" 70.8661" height=" 70.8661" viewBox="-12.0991 -.8642 70.8661 70.8661"><path d="M39.052999,20.364 L39.623999,20.364 C43.547998,20.364 46.757999,23.573999 46.757999,27.498001 L46.744999,42.812 C46.737,43.587002 46.106998,44.213001 45.329998,44.213001 44.552999,44.213001 43.924,43.587002 43.914999,42.812 L43.903999,27.498001 C43.903999,25.138 41.983999,23.218 39.623999,23.218 L39.052999,23.218 C36.692999,23.218 34.773,25.138 34.773,27.498001 L34.761999,66.614006 C34.761999,67.397003 34.127,68.032005 33.344,68.032005 32.561,68.032005 31.926999,67.397003 31.926999,66.614006 L31.919,27.498001 C31.919,23.573999 35.129,20.364 39.052999,20.364 z M17.514,20.364 C21.438,20.364 24.648,23.574001 24.648001,27.498001 L24.635001,66.614006 C24.635,67.397003 24,68.032005 23.217,68.032005 22.434,68.032005 21.8,67.397003 21.800001,66.614006 L21.794001,27.498001 C21.794,25.138 19.874,23.218 17.514,23.218 L1.4160004,23.205 C0.63400078,23.205 0,22.571001 0,21.788 0,21.006001 0.63400078,20.371 1.4160004,20.371 z M28.333001,0 C32.242002,0 35.419999,3.1789999 35.419999,7.0869989 35.419999,10.994999 32.242002,14.174 28.333001,14.174 24.424999,14.174 21.246999,10.994999 21.246999,7.0869989 21.246999,3.1789999 24.424999,0 28.333001,0 z"/></svg>
