<svg  xmlns="http://www.w3.org/2000/svg" width=" 70.8661" height=" 70.8661" viewBox="-0 -2.5927 70.8661 70.8661"><path d="M67.682,29.619L56.593,29.619C55.811,29.619,55.177,30.252,55.177,31.034L55.177,60.027C55.177,61.318,54.126,62.367,52.834,62.367L18.032,62.367C16.74,62.367,15.689,61.318,15.689,60.027L15.689,31.034C15.689,30.252,15.055,29.619,14.273,29.619L3.184,29.619C2.955,29.343 2.832,29.036 2.832,28.725 2.832,28.294 3.07,27.868 3.5,27.525 3.5,27.525 33.355,3.558 33.456,3.478 33.993,3.051 34.711,2.836 35.433,2.827 36.155,2.836 36.873,3.051 37.41,3.478 37.511,3.558 67.366,27.525 67.366,27.525 67.796,27.868 68.034,28.294 68.034,28.725 68.034,29.036 67.911,29.343 67.682,29.619 M69.129,25.311L39.262,1.264C38.19,0.411 36.81,-0.009 35.433,0 34.056,-0.009 32.676,0.411 31.604,1.264L1.737,25.311C0.633,26.188 0,27.433 0,28.725 0,30.017 0.632,31.262 1.736,32.14 1.987,32.34 2.298,32.449 2.619,32.449L12.856,32.449 12.856,60.027C12.856,62.877,15.178,65.197,18.032,65.197L52.834,65.197C55.688,65.197,58.01,62.877,58.01,60.027L58.01,32.449 68.247,32.449C68.568,32.449 68.879,32.34 69.13,32.14 70.233,31.262 70.866,30.017 70.866,28.725 70.866,27.433 70.233,26.188 69.129,25.311"/></svg>
