<svg  xmlns="http://www.w3.org/2000/svg" width=" 70.8661" height=" 70.8661" viewBox="-2.5927 -2.5927 70.8661 70.8661"><path d="M32.5989990234375,43.9360013770175C34.9440002441406,43.9360013770175 36.851001739502,45.8440023230625 36.851001739502,48.1880002783847 36.851001739502,50.5330014990878 34.9440002441406,52.4399991797519 32.5989990234375,52.4399991797519 30.253999710083,52.4399991797519 28.3470001220703,50.5330014990878 28.3470001220703,48.1880002783847 28.3470001220703,45.8440023230625 30.253999710083,43.9360013770175 32.5989990234375,43.9360013770175z M32.5989990234375,12.7550006674838C33.6949996948242,12.7550006674838,34.5830001831055,13.6440006064487,34.5830001831055,14.7390008734775L34.5830001831055,36.849999027164C34.5830001831055,37.9450002478671 33.6949996948242,38.834000186832 32.5989990234375,38.834000186832 31.5030002593994,38.834000186832 30.6149997711182,37.9450002478671 30.6149997711182,36.849999027164L30.6149997711182,14.7390008734775C30.6149997711182,13.6440006064487,31.5030002593994,12.7550006674838,32.5989990234375,12.7550006674838z M32.5989990234375,2.83500011435274C16.1609992980957,2.8350005911899 2.83500003814697,16.160000400455 2.83500027656555,32.5980001257968 2.83500003814697,49.0359998511386 16.1609992980957,62.3620000647617 32.5989990234375,62.3620000647617 49.0369987487793,62.3620000647617 62.3629989624023,49.0359998511386 62.3629989624023,32.5980001257968 62.3629989624023,16.160000400455 49.0369987487793,2.8350005911899 32.5989990234375,2.83500011435274z M32.5989990234375,0C50.6020011901855,5.53042923456815E-07 65.1969985961914,14.5940004157138 65.1969985961914,32.5980001257968 65.1969985961914,50.6020017432285 50.6020011901855,65.1959996985507 32.5989990234375,65.1959996985507 14.5950002670288,65.1959996985507 0,50.6020017432285 0,32.5980001257968 0,14.5940004157138 14.5950002670288,5.53042923456815E-07 32.5989990234375,0z"/></svg>
