<svg  xmlns="http://www.w3.org/2000/svg" width=" 70.8661" height=" 70.8661" viewBox="-6.9138 -6.9138 70.8661 70.8661"><path d="M32.5980002880096,32.5979996657049L32.5980002880096,53.8580018019354 53.8579998016357,53.8580018019354 53.8579998016357,32.5979996657049z M2.83399963378906,32.5979996657049L2.83399963378906,53.8580018019354 24.0939998626709,53.8580018019354 24.0939998626709,32.5979996657049z M31.1760008335114,29.7640000319159L55.2790012359619,29.7640000319159C56.0559997558594,29.7640000319159,56.6920013427734,30.3999997114813,56.6920013427734,31.1770001387274L56.6920013427734,55.2799988722479C56.6920013427734,56.056999299494,56.0559997558594,56.6930008864081,55.2790012359619,56.6930008864081L31.1760008335114,56.6930008864081C30.3990004658699,56.6930008864081,29.7630004882813,56.056999299494,29.7630007867188,55.2799988722479L29.7630007867188,31.1770001387274C29.7630004882813,30.3999997114813,30.3990004658699,29.7640000319159,31.1760008335114,29.7640000319159z M1.41200065612793,29.7640000319159L25.5160007476807,29.7640000319159C26.2920005321503,29.7640000319159,26.9280004501343,30.3999997114813,26.9280002117157,31.1770001387274L26.9280002117157,55.2799988722479C26.9280004501343,56.056999299494,26.2920005321503,56.6930008864081,25.5160007476807,56.6930008864081L1.41200065612793,56.6930008864081C0.63599967956543,56.6930008864081,0,56.056999299494,0,55.2799988722479L0,31.1770001387274C0,30.3999997114813,0.63599967956543,29.7640000319159,1.41200065612793,29.7640000319159z M32.5980002880096,2.83500036951659L32.5980002880096,24.0949994063055 53.8579998016357,24.0949994063055 53.8579998016357,2.83500036951659z M2.83399963378906,2.83500036951659L2.83399963378906,24.0949994063055 24.0940008163452,24.0949994063055 24.0940008163452,2.83500036951659z M31.1760008335114,0L55.2790012359619,0C56.0559997558594,9.29510406422196E-08,56.6920013427734,0.636000070539694,56.6920013427734,1.41300008055327L56.6920013427734,25.5160008406317C56.6920013427734,26.2929993605292,56.0559997558594,26.9290009474432,55.2790012359619,26.9290009474432L31.1760008335114,26.9290009474432C30.3990004658699,26.9290009474432,29.7630004882813,26.2929993605292,29.7629999419273,25.5160008406317L29.7629999419273,1.41300008055327C29.7630004882813,0.636000070539694,30.3990004658699,9.29510406422196E-08,31.1760008335114,0z M1.41200065612793,0L25.5160007476807,0C26.2920005321503,9.29510406422196E-08,26.9280004501343,0.636000070539694,26.92800116539,1.41300008055327L26.92800116539,25.5160008406317C26.9280004501343,26.2929993605292,26.2920005321503,26.9290009474432,25.5160007476807,26.9290009474432L1.41200065612793,26.9290009474432C0.63599967956543,26.9290009474432,0,26.2929993605292,0,25.5160008406317L0,1.41300008055327C0,0.636000070539694,0.63599967956543,9.29510406422196E-08,1.41200065612793,0z"/></svg>
